<?xml version="1.0" encoding="UTF-8" standalone="no"?>
<!-- Generator: Adobe Illustrator 15.0.0, SVG Export Plug-In . SVG Version: 6.00 Build 0)  -->

<svg
   version="1.1"
   id="Layer_1"
   x="0px"
   y="0px"
   width="400px"
   height="212px"
   viewBox="0 0 400 212"
   enable-background="new 0 0 400 212"
   xml:space="preserve"
   sodipodi:docname="404.svg"
   inkscape:version="1.2.2 (b0a8486, 2022-12-01)"
   xmlns:inkscape="http://www.inkscape.org/namespaces/inkscape"
   xmlns:sodipodi="http://sodipodi.sourceforge.net/DTD/sodipodi-0.dtd"
   xmlns:xlink="http://www.w3.org/1999/xlink"
   xmlns="http://www.w3.org/2000/svg"
   xmlns:svg="http://www.w3.org/2000/svg"><defs
   id="defs51"><linearGradient
   inkscape:collect="always"
   id="linearGradient1592"><stop
     style="stop-color:#4b0000;stop-opacity:1;"
     offset="0"
     id="stop1588" /><stop
     style="stop-color:#c05f2c;stop-opacity:1;"
     offset="0.5"
     id="stop1596" /><stop
     style="stop-color:#d78a19;stop-opacity:1;"
     offset="0.75"
     id="stop1598" /><stop
     style="stop-color:#c59219;stop-opacity:1;"
     offset="0.875"
     id="stop1600" /><stop
     style="stop-color:#7c792f;stop-opacity:1;"
     offset="0.9375"
     id="stop1602" /><stop
     style="stop-color:#004958;stop-opacity:1;"
     offset="1"
     id="stop1590" /></linearGradient>
	
	
	
	
	
	
	
	
	
	
	
	
	
	
	
	
	
	
	
	
	
	
<linearGradient
   inkscape:collect="always"
   xlink:href="#linearGradient1592"
   id="linearGradient1594"
   x1="-0.00066603061"
   y1="110.5061"
   x2="381.04683"
   y2="110.5061"
   gradientUnits="userSpaceOnUse" /></defs><sodipodi:namedview
   id="namedview49"
   pagecolor="#505050"
   bordercolor="#ffffff"
   borderopacity="1"
   inkscape:showpageshadow="0"
   inkscape:pageopacity="0"
   inkscape:pagecheckerboard="1"
   inkscape:deskcolor="#505050"
   showgrid="false"
   inkscape:zoom="1.515"
   inkscape:cx="163.0363"
   inkscape:cy="145.87459"
   inkscape:window-width="1920"
   inkscape:window-height="1031"
   inkscape:window-x="0"
   inkscape:window-y="0"
   inkscape:window-maximized="1"
   inkscape:current-layer="Layer_1" />
<path
   fill="#ffffff"
   d="m 253.371,189.848 c 2.012,0 2.943,-1.375 2.943,-3.336 v -4.857 c 0,-1.986 -0.785,-3.312 -2.943,-3.312 -2.16,0 -2.944,1.324 -2.944,3.312 v 4.857 c 0,1.961 0.932,3.336 2.944,3.336 z"
   id="path2" /><path
   fill="#ffffff"
   d="m 223.661,178.562 h -2.601 v 4.07 h 2.748 c 1.692,0 2.602,-0.711 2.602,-1.986 0,-1.029 -0.515,-2.084 -2.749,-2.084 z"
   id="path4" /><path
   fill="#ffffff"
   d="m 271.182,180.646 c 0,-1.029 -0.516,-2.084 -2.748,-2.084 h -2.601 v 4.07 h 2.748 c 1.692,0.003 2.601,-0.708 2.601,-1.986 z"
   id="path6" /><path
   fill="#ffffff"
   d="m 235.902,178.562 v 4.07 h 2.748 c 1.691,0 2.601,-0.711 2.601,-1.986 0,-1.029 -0.517,-2.084 -2.748,-2.084 z"
   id="path8" /><circle
   fill="#ffffff"
   cx="111.669"
   cy="141.911"
   r="1.887"
   id="circle10" /><circle
   fill="#ffffff"
   cx="112.847"
   cy="86.864998"
   r="1.059"
   id="circle12" /><circle
   fill="#ffffff"
   cx="268.67001"
   cy="159.242"
   r="3.4630001"
   id="circle14" /><circle
   fill="#ffffff"
   cx="196.42599"
   cy="80.767998"
   r="3.4619999"
   id="circle16" /><circle
   fill="#ffffff"
   cx="136.623"
   cy="37.432999"
   r="1.918"
   id="circle18" /><circle
   fill="#ffffff"
   cx="142.298"
   cy="159.241"
   r="1.919"
   id="circle20" /><circle
   fill="#ffffff"
   cx="6.5879998"
   cy="157.323"
   r="1.919"
   id="circle22" /><circle
   fill="#ffffff"
   cx="140.46001"
   cy="1.919"
   r="1.919"
   id="circle24" /><circle
   fill="#ffffff"
   cx="265.20801"
   cy="131.731"
   r="1.919"
   id="circle26" /><circle
   fill="#ffffff"
   cx="194.507"
   cy="99.371002"
   r="1.919"
   id="circle28" /><circle
   fill="#ffffff"
   cx="368.96301"
   cy="68.017998"
   r="7.1329999"
   id="circle30" /><circle
   fill="#ffffff"
   cx="354.23901"
   cy="66.227997"
   r="2.3859999"
   id="circle32" /><path
   fill="#ffffff"
   d="m 397.248,127.646 c -1.371,-0.691 -2.906,-0.69 -4.217,-0.133 -1.629,-0.576 -2.787,-2.189 -2.906,-4.094 0.293,-0.396 0.469,-0.886 0.469,-1.416 0,-1.316 -1.066,-2.387 -2.387,-2.387 -1.316,0 -2.387,1.066 -2.387,2.387 0,1.314 1.068,2.387 2.387,2.387 0.129,0 0.254,-0.015 0.377,-0.033 1.471,0.813 2.404,2.574 2.223,4.519 -0.02,0.235 -0.061,0.464 -0.109,0.687 -0.061,0.1 -0.117,0.195 -0.17,0.299 -0.188,0.367 -0.316,0.75 -0.406,1.137 -0.047,0.207 -0.08,0.416 -0.104,0.625 -0.195,1.998 0.82,4.004 2.725,4.963 2.467,1.244 5.477,0.254 6.723,-2.215 1.241,-2.47 0.251,-5.479 -2.218,-6.726 z"
   id="path34" /><circle
   fill="#ffffff"
   cx="363.883"
   cy="191.517"
   r="2.3859999"
   id="circle36" /><circle
   fill="#ffffff"
   cx="12.716"
   cy="97.950996"
   r="2.3859999"
   id="circle38" /><circle
   fill="#ffffff"
   cx="72.362999"
   cy="9.8830004"
   r="5.1069999"
   id="circle40" /><path
   fill="#ffffff"
   d="m 374.449,117.463 c -2.938,-0.773 -5.188,-1.562 -6.91,-2.342 -6.049,-0.127 -10.914,-5.066 -10.914,-11.147 0,-4.872 3.125,-9.011 7.479,-10.531 v -8.787 c 0,-7.162 -6.367,-12.534 -13.729,-12.534 -7.76,0 -13.727,5.372 -13.727,12.534 v 30.438 h -5.203 c -0.525,0.77 -1.07,2.096 -1.566,4.301 0.053,1.385 -0.611,2.695 -1.836,3.336 -1.748,0.914 -3.977,0.106 -4.975,-1.805 -0.361,-0.686 -0.51,-1.422 -0.475,-2.125 -0.156,-0.641 -0.799,-2.309 -3.291,-3.707 h -7.523 c 9.477,-21.895 17.479,-39.904 26.43,-60.408 1.744,0.947 3.965,0.801 5.586,-0.545 1.18,-0.981 1.793,-2.39 1.803,-3.813 1.18,-1.264 3.121,-1.681 4.912,-1.033 0.248,0.427 0.625,0.783 1.111,0.995 1.209,0.526 2.613,-0.028 3.141,-1.236 0.525,-1.208 -0.025,-2.614 -1.234,-3.14 -1.207,-0.525 -2.613,0.028 -3.141,1.236 -0.051,0.117 -0.09,0.237 -0.121,0.357 -1.332,1.024 -3.316,1.178 -5.027,0.237 -0.207,-0.113 -0.4,-0.241 -0.586,-0.377 -0.064,-0.093 -0.133,-0.186 -0.203,-0.275 -0.268,-0.318 -0.564,-0.588 -0.881,-0.824 -0.17,-0.126 -0.35,-0.241 -0.531,-0.344 -0.273,-0.152 -0.561,-0.274 -0.854,-0.372 0.494,-1.136 0.99,-2.278 1.49,-3.435 0.145,-0.329 0.283,-0.656 0.428,-0.986 0.035,-0.083 0.07,-0.164 0.105,-0.246 0.795,-1.791 0.795,-3.183 0.795,-4.377 0,-0.644 -0.059,-1.279 -0.174,-1.902 0.449,-0.761 0.928,-1.159 1.146,-1.315 0.444,-0.274 0.846,-0.632 1.178,-1.078 1.396,-1.877 1.004,-4.53 -0.873,-5.925 -1.053,-0.781 -2.351,-1.001 -3.53,-0.714 -1.604,0.314 -2.863,0.448 -3.853,0.461 -0.944,-0.636 -1.959,-1.166 -3.011,-1.57 -0.163,-0.062 -0.327,-0.122 -0.491,-0.178 -1.34,-0.458 -2.733,-0.712 -4.119,-0.712 -5.174,0 -10.346,2.985 -12.334,7.759 L 304.238,65.26 c -6.444,1.322 -13.092,-2.191 -15.526,-8.56 -0.317,-0.829 -0.987,-2.308 -1.591,-3.807 -0.146,-1.445 -0.557,-2.812 -1.18,-4.054 0,-10e-4 0,-0.002 0,-0.003 v 0.001 c -1.928,-3.848 -5.903,-6.491 -10.502,-6.491 -6.342,0 -11.506,5.029 -11.73,11.315 -0.01,-0.007 -0.02,-0.016 -0.029,-0.023 -0.021,0.307 -0.056,0.614 -0.104,0.923 -0.764,4.848 -4.43,8.515 -8.95,9.514 C 243,41.661 219.584,26.345 192.59,26.345 c -12.213,0 -23.69,3.138 -33.679,8.646 -1.311,0.511 -2.736,0.795 -4.229,0.795 -6.414,0 -11.614,-5.165 -11.614,-11.537 0,-0.732 0.075,-1.447 0.208,-2.142 0.361,-0.979 0.559,-2.037 0.559,-3.142 0,-5.019 -4.069,-9.087 -9.087,-9.087 -5.018,0 -9.086,4.068 -9.086,9.087 0,4.88 3.847,8.86 8.674,9.077 -0.008,0.017 -0.018,0.032 -0.026,0.049 0.297,-0.024 0.596,-0.039 0.899,-0.039 6.203,0 11.23,5.028 11.23,11.23 0,2.282 -0.682,4.403 -1.851,6.175 -12.39,11.731 -20.484,27.943 -21.685,46.043 -1.583,2.254 -4.604,3.077 -7.12,1.808 -0.327,-0.165 -0.628,-0.359 -0.907,-0.576 -0.343,-0.362 -0.748,-0.676 -1.218,-0.914 -1.937,-0.977 -4.25,-0.391 -5.511,1.281 -0.02,-0.023 -0.038,-0.048 -0.057,-0.071 -0.061,0.153 -0.127,0.305 -0.202,0.455 -0.022,0.038 -0.043,0.076 -0.065,0.114 -1.564,2.937 -5.529,3.953 -9.073,2.373 V 80.046 c 0,-7.163 -6.367,-12.534 -13.728,-12.534 -1.727,0 -3.363,0.268 -4.867,0.76 -4.852,-1.573 -8.834,-5.121 -11.006,-9.719 3.121,-7.123 6.319,-14.45 9.706,-22.275 0.796,-1.791 0.796,-3.183 0.796,-4.377 0,-2.307 -0.768,-4.502 -2.036,-6.41 0.991,-0.075 1.772,-0.901 1.772,-1.912 0,-1.059 -0.859,-1.918 -1.918,-1.918 -0.894,0 -1.643,0.612 -1.856,1.439 -2.617,-2.52 -6.179,-4.13 -9.689,-4.13 -5.173,0 -10.346,2.984 -12.335,7.759 L 46.8,42.393 c -2.533,0.981 -4.313,0.617 -4.921,0.432 -0.728,-0.282 -1.519,-0.438 -2.348,-0.432 -3.462,0.023 -6.249,2.799 -6.226,6.197 0.014,1.911 0.914,3.613 2.315,4.732 1.965,1.734 3.308,3.174 4.208,4.373 3.432,0.703 6.013,3.739 6.013,7.378 0,4.16 -3.372,7.531 -7.532,7.531 -1.505,0 -2.906,-0.443 -4.082,-1.204 L 20.44,103.212 c -0.951,0.173 -1.613,0.023 -1.883,-0.063 -0.434,-0.175 -0.906,-0.273 -1.402,-0.273 -2.072,0 -3.752,1.68 -3.752,3.751 0,1.16 0.527,2.197 1.354,2.884 0.874,0.798 1.539,1.49 2.046,2.099 l -1.41,3.252 c -1.194,2.588 -1.99,6.168 -1.99,6.965 0,3.484 1.37,6.779 3.736,9.246 -0.691,3.535 -3.605,6.354 -7.353,6.736 -0.529,0.055 -1.05,0.053 -1.561,0.008 -0.733,-0.188 -1.51,-0.252 -2.307,-0.172 -3.62,0.371 -6.254,3.604 -5.884,7.225 0.37,3.619 3.603,6.254 7.222,5.884 3.521,-0.358 6.107,-3.428 5.907,-6.926 0.012,0.006 0.025,0.012 0.038,0.017 -0.039,-0.212 -0.071,-0.427 -0.094,-0.645 -0.458,-4.475 2.798,-8.471 7.272,-8.928 0.484,-0.051 0.961,-0.054 1.431,-0.02 0.977,0.402 2.023,0.7 3.127,0.884 0.154,0.08 0.308,0.162 0.456,0.253 0.004,-0.061 0.005,-0.119 0.008,-0.181 0.687,0.094 1.396,0.146 2.125,0.146 h 43.768 v 16.313 c 0,7.162 5.969,12.533 13.728,12.533 7.759,0 13.728,-5.371 13.728,-12.533 v -16.313 h 2.586 c 3.219,0 6.11,-1.013 8.373,-2.709 0.355,1.392 1.606,2.424 3.108,2.438 1.79,0.018 3.252,-1.423 3.267,-3.212 0.015,-1.681 -1.25,-3.07 -2.886,-3.248 0.939,-1.731 1.466,-3.702 1.466,-5.802 0,-1.108 -0.168,-2.194 -0.479,-3.234 1.92,-0.525 3.925,-0.807 5.989,-0.807 2.303,0 4.532,0.352 6.651,1 6.203,17.291 19.027,31.427 35.419,39.347 -1.013,5.949 -5.053,11.205 -11.086,13.457 -1.031,0.385 -2.075,0.66 -3.122,0.84 -1.589,0.004 -3.205,0.283 -4.781,0.872 -0.326,0.122 -0.642,0.258 -0.953,0.4 -3.181,-0.653 -5.56,-3.467 -5.531,-6.814 0.003,-0.451 0.054,-0.893 0.142,-1.316 0.213,-0.574 0.337,-1.19 0.343,-1.84 0.026,-3.002 -2.386,-5.455 -5.387,-5.479 -3.002,-0.026 -5.456,2.386 -5.481,5.387 -0.025,2.92 2.257,5.315 5.145,5.468 -0.006,0.012 -0.013,0.024 -0.02,0.036 0.177,-0.014 0.356,-0.021 0.538,-0.021 3.709,0.033 6.691,3.066 6.659,6.775 0,0.071 -0.008,0.146 -0.011,0.217 -3.956,3.682 -5.529,9.517 -3.522,14.894 2.658,7.12 10.584,10.737 17.705,8.08 6.924,-2.585 10.534,-10.151 8.283,-17.115 0.028,0.004 0.056,0.011 0.084,0.013 -0.191,-0.408 -0.371,-0.824 -0.531,-1.254 -2.864,-7.671 0.167,-16.099 6.821,-20.311 7.775,2.986 16.219,4.63 25.047,4.63 11.034,0 21.471,-2.562 30.749,-7.12 4.653,-0.788 7.015,0.889 7.644,1.438 0.058,0.059 0.117,0.111 0.176,0.168 0.305,0.285 0.643,0.543 1.006,0.771 1.002,6.354 -7.042,6.977 -13.784,8.105 -14.117,2.373 -24.388,-4.176 -34.259,6.949 -4.253,4.793 -10.486,22.168 -5.62,28.328 7.624,9.649 19.745,0.562 28.438,-2.399 14.27,-4.864 24.832,-5.397 39.529,-1.104 11.784,3.439 34.346,16.715 45.646,5.6 8.604,-8.461 0.189,-14.021 -1.465,-23.488 -2.474,-14.148 3.563,-16.786 -13.162,-18.021 -14.697,-1.084 -28.973,0.428 -36.004,-10.634 -0.113,-0.438 -0.275,-0.866 -0.485,-1.272 -0.927,-2.049 -1.524,-3.715 -1.886,-5.07 12.959,-11.582 21.568,-27.925 23.08,-46.284 7.322,1.36 13.929,6.056 17.432,13.269 0.566,1.17 1.029,2.363 1.396,3.567 l -0.274,0.636 c -1.193,2.586 -1.988,6.166 -1.988,6.963 0,2.072 0.485,4.078 1.374,5.883 -1.021,3.695 -4.47,6.33 -8.438,6.148 -0.529,-0.025 -1.047,-0.104 -1.545,-0.224 -0.697,-0.293 -1.457,-0.472 -2.254,-0.508 -3.637,-0.166 -6.718,2.646 -6.884,6.278 -0.167,3.635 2.646,6.715 6.278,6.883 3.537,0.16 6.546,-2.493 6.859,-5.981 0.015,0.007 0.023,0.017 0.037,0.021 -0.009,-0.215 -0.011,-0.435 0.002,-0.651 0.203,-4.491 4.013,-7.967 8.504,-7.763 0.263,0.014 0.517,0.039 0.771,0.074 2.423,2.073 5.659,3.365 9.42,3.365 h 43.771 v 16.312 c 0,7.162 5.967,12.533 13.727,12.533 0.975,0 1.92,-0.084 2.828,-0.246 3.449,1.07 5.615,4.57 4.914,8.172 -0.09,0.457 -0.227,0.894 -0.395,1.31 -0.322,0.543 -0.566,1.147 -0.695,1.806 -0.592,3.045 1.395,5.992 4.438,6.584 3.045,0.593 5.99,-1.396 6.584,-4.438 0.576,-2.96 -1.289,-5.822 -4.191,-6.521 0.008,-0.012 0.018,-0.021 0.025,-0.031 -0.184,-0.021 -0.363,-0.047 -0.551,-0.084 -3.76,-0.73 -6.217,-4.375 -5.484,-8.137 0.025,-0.129 0.061,-0.254 0.094,-0.379 3.748,-2.188 6.164,-6.014 6.164,-10.564 v -11.84 c 3.064,-8.785 8.01,-10.309 9.393,-10.563 1.047,-0.097 2.094,-0.394 3.082,-0.911 4.07,-2.125 5.643,-7.15 3.516,-11.218 -1.199,-2.3 -3.31,-3.799 -5.65,-4.295 z M 71.296,80.046 v 30.438 H 46.428 C 53.99,93.015 60.612,78.023 67.525,62.26 c 3.021,2.977 5.06,6.957 5.572,11.414 -1.148,1.846 -1.801,4.011 -1.801,6.372 z m 38.914,33.593 c -2.328,-1.939 -5.412,-3.154 -8.873,-3.154 h -0.694 c -0.529,0.106 -1.075,0.115 -1.623,0 h -0.27 v -0.063 c -0.413,-0.112 -0.824,-0.298 -1.231,-0.562 -3.415,-2.219 -1.776,-8.004 1.246,-9.559 1.879,-2.678 5.885,-3.463 9.375,-1.702 0.095,0.048 0.185,0.1 0.276,0.15 0.351,0.382 0.771,0.712 1.262,0.959 2.119,1.069 4.685,0.267 5.836,-1.782 0.006,0.009 0.012,0.019 0.018,0.027 0.055,-0.134 0.114,-0.268 0.18,-0.398 1.311,-2.598 4.411,-3.688 7.044,-2.543 -0.007,0.396 -0.015,0.789 -0.015,1.185 0,1.777 0.068,3.538 0.198,5.281 -2.879,5.514 -7.361,9.838 -12.729,12.161 z m 36.949,-14.287 c -1.05,0 -1.9,-0.851 -1.9,-1.9 0,-1.049 0.85,-1.901 1.9,-1.901 1.049,0 1.9,0.852 1.9,1.901 0,1.049 -0.851,1.9 -1.9,1.9 z m 29.449,-53.206 c 2.12,0 3.839,1.719 3.839,3.84 0,2.121 -1.719,3.839 -3.839,3.839 -2.121,0 -3.84,-1.719 -3.84,-3.839 0,-2.121 1.719,-3.84 3.84,-3.84 z m 9.248,99.174 c -2.443,0 -4.422,-1.979 -4.422,-4.422 0,-2.441 1.979,-4.422 4.422,-4.422 2.442,0 4.422,1.979 4.422,4.422 0,2.443 -1.98,4.422 -4.422,4.422 z m 33.585,2.17 c -1.051,0 -1.901,-0.852 -1.901,-1.9 0,-1.048 0.851,-1.9 1.901,-1.9 1.049,0 1.897,0.854 1.897,1.9 0.002,1.051 -0.848,1.9 -1.897,1.9 z m 6.118,-27.599 c -0.742,3.316 -4.082,5.395 -7.461,4.637 -0.81,-0.18 -1.543,-0.51 -2.188,-0.946 -0.646,-0.372 -2.811,-1.354 -6.391,-0.377 -2.043,1.374 -4.266,2.505 -6.621,3.354 -0.444,0.264 -0.699,0.346 -0.787,0.271 -1.174,0.386 -2.375,0.703 -3.606,0.944 -0.349,3.767 1.975,7.388 5.733,8.531 0.21,0.063 0.421,0.116 0.632,0.163 -0.011,0.009 -0.021,0.019 -0.03,0.028 3.303,1.169 5.128,4.742 4.098,8.128 -1.062,3.479 -4.742,5.44 -8.225,4.379 -3.481,-1.062 -5.44,-4.741 -4.378,-8.224 0.233,-0.764 0.592,-1.456 1.05,-2.059 0.239,-0.453 0.442,-0.936 0.597,-1.441 1.038,-3.402 -0.214,-6.959 -2.875,-9.034 -0.832,0.067 -1.67,0.104 -2.519,0.104 -16.791,0 -30.4,-13.61 -30.4,-30.399 0,-16.789 13.609,-30.399 30.4,-30.399 16.791,0 30.396,13.61 30.396,30.399 0,3.849 -0.715,7.529 -2.02,10.918 0.562,1.475 1.614,3.392 3.403,5.896 1.113,1.404 1.608,3.263 1.192,5.127 z M 213.8,192.742 h -6.502 c -1.202,0 -2.28,-0.417 -2.28,-1.742 v -13.812 c 0,-0.856 0.811,-1.739 1.89,-1.739 h 6.647 c 0.932,0 1.715,0.733 1.715,1.594 0,0.884 -0.783,1.521 -1.715,1.521 h -5.104 v 3.949 h 4.636 c 0.858,0 1.692,0.661 1.692,1.547 0,0.883 -0.734,1.568 -1.692,1.568 h -4.636 v 3.999 h 5.349 c 0.906,0 1.716,0.687 1.716,1.521 0,0.883 -0.786,1.594 -1.716,1.594 z m 14.498,0.196 c -0.614,0 -1.13,-0.269 -1.448,-0.76 l -4.121,-6.451 h -1.668 v 5.617 c 0,0.859 -0.81,1.619 -1.742,1.619 -0.908,0 -1.691,-0.734 -1.691,-1.619 v -14.131 c 0,-0.957 0.857,-1.766 1.864,-1.766 h 4.269 c 4.612,0 6.084,2.625 6.084,5.199 0,2.43 -1.3,4.022 -3.41,4.711 l 3.36,5.055 c 0.809,1.227 -0.393,2.526 -1.497,2.526 z m 34.1,-15.725 c 0,-0.957 0.855,-1.766 1.863,-1.766 h 4.27 c 4.611,0 6.084,2.625 6.084,5.199 0,2.43 -1.299,4.022 -3.411,4.711 l 3.36,5.055 c 0.812,1.227 -0.394,2.525 -1.494,2.525 -0.614,0 -1.129,-0.271 -1.449,-0.762 l -4.122,-6.449 h -1.667 v 5.615 c 0,0.859 -0.809,1.619 -1.743,1.619 -0.907,0 -1.692,-0.734 -1.692,-1.619 v -14.13 z m -15.406,4.439 c 0,-3.482 1.791,-6.426 6.378,-6.426 4.587,0 6.378,2.941 6.378,6.426 v 4.856 c 0,3.582 -2.135,6.452 -6.378,6.452 -4.244,0 -6.378,-2.87 -6.378,-6.452 z m -19.103,-72.601 c 0,-2.098 1.701,-3.8 3.799,-3.8 2.101,0 3.801,1.702 3.801,3.8 0,2.1 -1.7,3.801 -3.801,3.801 -2.099,0 -3.799,-1.702 -3.799,-3.801 z m 16.797,71.595 c 0,2.43 -1.299,4.022 -3.41,4.711 l 3.361,5.055 c 0.812,1.227 -0.393,2.525 -1.496,2.525 -0.615,0 -1.131,-0.271 -1.449,-0.762 l -4.121,-6.449 h -1.668 v 5.615 c 0,0.859 -0.81,1.619 -1.74,1.619 -0.908,0 -1.691,-0.734 -1.691,-1.619 V 177.21 c 0,-0.957 0.857,-1.768 1.863,-1.768 h 4.27 c 4.609,0.005 6.081,2.63 6.081,5.204 z m 44.45,-78.39 c -0.308,0 -0.612,-0.012 -0.919,-0.029 l -0.015,0.038 c -9.415,2.678 -19.502,-0.387 -25.788,-7.665 -0.223,-9.989 -2.547,-19.458 -6.541,-27.989 2.604,-2.646 6.387,-4.043 10.316,-3.425 1.094,0.172 2.127,0.491 3.086,0.93 0,-0.011 -0.002,-0.022 -0.002,-0.034 1.791,1.108 3.902,1.749 6.166,1.749 2.342,0 4.522,-0.689 6.354,-1.872 7.044,-2.152 14.644,1.473 17.306,8.437 0.336,0.88 0.568,1.772 0.721,2.667 3.082,2.867 5.014,6.955 5.014,11.495 10e-4,8.67 -7.027,15.698 -15.698,15.698 z m 39.782,27.502 c -1.061,0 -1.92,-0.859 -1.92,-1.92 0,-1.059 0.859,-1.918 1.92,-1.918 1.061,0 1.92,0.859 1.92,1.918 0,1.06 -0.859,1.92 -1.92,1.92 z"
   id="path42"
   style="fill-opacity:1;fill:url(#linearGradient1594)" /><circle
   fill="#ffffff"
   cx="378.93201"
   cy="104.073"
   r="1.919"
   id="circle44" />
</svg>
