<?xml version="1.0" encoding="UTF-8" standalone="no"?>
<!-- Generator: Adobe Illustrator 15.0.0, SVG Export Plug-In . SVG Version: 6.00 Build 0)  -->

<svg
   version="1.1"
   id="Layer_1"
   x="0px"
   y="0px"
   width="96px"
   height="13px"
   viewBox="0 0 96 13"
   enable-background="new 0 0 96 13"
   xml:space="preserve"
   sodipodi:docname="divider_2.svg"
   inkscape:version="1.2.2 (b0a8486, 2022-12-01)"
   xmlns:inkscape="http://www.inkscape.org/namespaces/inkscape"
   xmlns:sodipodi="http://sodipodi.sourceforge.net/DTD/sodipodi-0.dtd"
   xmlns="http://www.w3.org/2000/svg"
   xmlns:svg="http://www.w3.org/2000/svg"><defs
   id="defs11" /><sodipodi:namedview
   id="namedview9"
   pagecolor="#505050"
   bordercolor="#ffffff"
   borderopacity="1"
   inkscape:showpageshadow="0"
   inkscape:pageopacity="0"
   inkscape:pagecheckerboard="1"
   inkscape:deskcolor="#505050"
   showgrid="false"
   inkscape:zoom="8.9272231"
   inkscape:cx="48.839375"
   inkscape:cy="7.8411841"
   inkscape:window-width="1920"
   inkscape:window-height="1031"
   inkscape:window-x="0"
   inkscape:window-y="0"
   inkscape:window-maximized="1"
   inkscape:current-layer="Layer_1" />
<circle
   fill="#D8D8D8"
   cx="48.011"
   cy="6.04"
   r="6.04"
   id="circle2"
   style="fill:#daa520;fill-opacity:1" />
<path
   fill="#D8D8D8"
   d="M36.597,4.146c-0.832,0-1.545,0.354-1.858,1.354H3.888c-0.313-1-1.026-1.354-1.858-1.354  C0.908,4.146,0,4.986,0,6.109c0,1.12,0.908,1.819,2.03,1.819c0.833,0,1.547-0.429,1.86-1.429h30.847c0.313,1,1.026,1.396,1.86,1.396  c1.122,0,2.03-0.754,2.03-1.875C38.627,4.899,37.719,4.146,36.597,4.146z"
   id="path4"
   style="fill:#daa520;fill-opacity:1" />
<path
   fill="#D8D8D8"
   d="M93.971,4.146c-0.834,0-1.545,0.354-1.859,1.354h-30.85c-0.313-1-1.025-1.354-1.857-1.354  c-1.122,0-2.03,0.841-2.03,1.964c0,1.121,0.908,1.818,2.03,1.818c0.832,0,1.546-0.428,1.859-1.428h30.846  c0.314,1,1.027,1.395,1.861,1.395C95.092,7.895,96,7.143,96,6.021C96,4.899,95.092,4.146,93.971,4.146z"
   id="path6"
   style="fill:#daa520;fill-opacity:1" />
</svg>
