<?xml version="1.0" encoding="UTF-8" standalone="no"?>
<svg
   id="Layer_1"
   data-name="Layer 1"
   viewBox="0 0 755.93067 315.40158"
   version="1.1"
   sodipodi:docname="logo.svg"
   inkscape:version="1.2.2 (b0a8486, 2022-12-01)"
   width="755.93066"
   height="315.40158"
   xmlns:inkscape="http://www.inkscape.org/namespaces/inkscape"
   xmlns:sodipodi="http://sodipodi.sourceforge.net/DTD/sodipodi-0.dtd"
   xmlns:xlink="http://www.w3.org/1999/xlink"
   xmlns="http://www.w3.org/2000/svg"
   xmlns:svg="http://www.w3.org/2000/svg">
  <sodipodi:namedview
     id="namedview269"
     pagecolor="#505050"
     bordercolor="#ffffff"
     borderopacity="1"
     inkscape:showpageshadow="0"
     inkscape:pageopacity="0"
     inkscape:pagecheckerboard="1"
     inkscape:deskcolor="#505050"
     showgrid="false"
     inkscape:zoom="0.761"
     inkscape:cx="144.54665"
     inkscape:cy="176.0841"
     inkscape:window-width="1920"
     inkscape:window-height="1031"
     inkscape:window-x="0"
     inkscape:window-y="0"
     inkscape:window-maximized="1"
     inkscape:current-layer="g692" />
  <defs
     id="defs68">
    <style
       id="style2">
      .cls-1 {
        fill: #b78b05;
      }

      .cls-2 {
        fill: url(#linear-gradient-2);
      }

      .cls-3 {
        fill: #010228;
      }

      .cls-4 {
        fill: url(#New_Gradient_Swatch);
      }

      .cls-5 {
        fill: url(#linear-gradient-6);
      }

      .cls-6 {
        fill: #082000;
      }

      .cls-7 {
        fill: #800808;
      }

      .cls-8 {
        fill: #2b7ab5;
      }

      .cls-9 {
        fill: #e4e026;
      }

      .cls-10 {
        fill: url(#linear-gradient-5);
      }

      .cls-11 {
        fill: url(#linear-gradient-7);
      }

      .cls-12 {
        fill: #bd131b;
      }

      .cls-13 {
        fill: url(#linear-gradient-9);
      }

      .cls-14 {
        fill: url(#linear-gradient-3);
      }

      .cls-15 {
        fill: url(#linear-gradient);
      }

      .cls-16 {
        fill: url(#linear-gradient-4);
      }

      .cls-17 {
        fill: url(#linear-gradient-8);
      }
    </style>
    <linearGradient
       id="linear-gradient"
       x1="516.53003"
       y1="270.17001"
       x2="515.26001"
       y2="276.37"
       gradientUnits="userSpaceOnUse">
      <stop
         offset="0"
         stop-color="#96c73e"
         id="stop4" />
      <stop
         offset="1"
         stop-color="#6e5a2e"
         id="stop6" />
    </linearGradient>
    <linearGradient
       id="linear-gradient-2"
       x1="540.14001"
       y1="252.3"
       x2="530.95001"
       y2="297.20001"
       xlink:href="#linear-gradient" />
    <linearGradient
       id="linear-gradient-3"
       x1="53.02"
       y1="852.67999"
       x2="40.509998"
       y2="913.77002"
       gradientTransform="matrix(1.1294809,-0.43401951,0.35869381,0.93345528,31.51,-545.32)"
       xlink:href="#linear-gradient" />
    <linearGradient
       id="linear-gradient-4"
       x1="-560.21002"
       y1="1726.38"
       x2="-572.96997"
       y2="1788.6899"
       gradientTransform="matrix(0.67539735,-1.0039614,0.82972014,0.55817963,-771.32,-1143.54)"
       xlink:href="#linear-gradient" />
    <linearGradient
       id="New_Gradient_Swatch"
       data-name="New Gradient Swatch"
       x1="357.32001"
       y1="264.25"
       x2="680.90997"
       y2="616.21997"
       gradientUnits="userSpaceOnUse">
      <stop
         offset="0"
         stop-color="#4b0000"
         id="stop12" />
      <stop
         offset=".21"
         stop-color="#4b0000"
         id="stop14" />
      <stop
         offset=".29"
         stop-color="#b64d33"
         id="stop16" />
      <stop
         offset=".37"
         stop-color="#d4851b"
         id="stop18" />
      <stop
         offset=".42"
         stop-color="#e7a80c"
         id="stop20" />
      <stop
         offset=".45"
         stop-color="#efb607"
         id="stop22" />
      <stop
         offset=".7"
         stop-color="#efb607"
         id="stop24" />
      <stop
         offset="1"
         stop-color="#004958"
         id="stop26" />
    </linearGradient>
    <linearGradient
       id="linear-gradient-5"
       x1="647.07001"
       y1="498.76001"
       x2="665.31"
       y2="518.59998"
       gradientUnits="userSpaceOnUse">
      <stop
         offset="0"
         stop-color="#4b0000"
         id="stop29" />
      <stop
         offset=".21"
         stop-color="#4b0000"
         id="stop31" />
      <stop
         offset=".29"
         stop-color="#b64d33"
         id="stop33" />
      <stop
         offset=".37"
         stop-color="#d4851b"
         id="stop35" />
      <stop
         offset=".42"
         stop-color="#e7a80c"
         id="stop37" />
      <stop
         offset=".45"
         stop-color="#efb607"
         id="stop39" />
      <stop
         offset=".7"
         stop-color="#efb607"
         id="stop41" />
      <stop
         offset="1"
         stop-color="#004958"
         id="stop43" />
    </linearGradient>
    <linearGradient
       id="linear-gradient-6"
       x1="292.17999"
       y1="464.98001"
       x2="292.17999"
       y2="464.98001"
       gradientUnits="userSpaceOnUse">
      <stop
         offset="0"
         stop-color="#4b0000"
         id="stop46" />
      <stop
         offset=".51"
         stop-color="#efb607"
         id="stop48" />
      <stop
         offset="1"
         stop-color="#004958"
         id="stop50" />
    </linearGradient>
    <linearGradient
       id="linear-gradient-7"
       x1="209.55"
       y1="811.96997"
       x2="252.11"
       y2="854.53003"
       gradientUnits="userSpaceOnUse">
      <stop
         offset=".08"
         stop-color="#4b0000"
         id="stop53" />
      <stop
         offset=".43"
         stop-color="#efb607"
         id="stop55" />
      <stop
         offset=".65"
         stop-color="#efb607"
         id="stop57" />
      <stop
         offset=".71"
         stop-color="#b49b1a"
         id="stop59" />
      <stop
         offset=".86"
         stop-color="#336046"
         id="stop61" />
      <stop
         offset=".92"
         stop-color="#004958"
         id="stop63" />
    </linearGradient>
    <linearGradient
       id="linear-gradient-8"
       x1="196.86"
       y1="824.62"
       x2="227.35001"
       y2="855.12"
       xlink:href="#linear-gradient-7"
       gradientTransform="translate(245.12869,38.267287)" />
    <linearGradient
       id="linear-gradient-9"
       x1="249.47"
       y1="819.12"
       x2="259.32999"
       y2="828.97998"
       xlink:href="#linear-gradient-7"
       gradientTransform="translate(245.12869,38.267287)" />
    <linearGradient
       inkscape:collect="always"
       xlink:href="#linear-gradient-7"
       id="linearGradient694"
       gradientUnits="userSpaceOnUse"
       x1="209.55"
       y1="811.96997"
       x2="252.11"
       y2="854.53003"
       gradientTransform="translate(245.12869,38.267287)" />
    <linearGradient
       inkscape:collect="always"
       xlink:href="#linear-gradient"
       id="linearGradient696"
       gradientUnits="userSpaceOnUse"
       x1="516.53003"
       y1="270.17001"
       x2="515.26001"
       y2="276.37" />
    <linearGradient
       inkscape:collect="always"
       xlink:href="#New_Gradient_Swatch"
       id="linearGradient698"
       gradientUnits="userSpaceOnUse"
       x1="357.32001"
       y1="264.25"
       x2="680.90997"
       y2="616.21997" />
    <linearGradient
       inkscape:collect="always"
       xlink:href="#linear-gradient-5"
       id="linearGradient700"
       gradientUnits="userSpaceOnUse"
       x1="647.07001"
       y1="498.76001"
       x2="665.31"
       y2="518.59998" />
    <linearGradient
       inkscape:collect="always"
       xlink:href="#linear-gradient-6"
       id="linearGradient702"
       gradientUnits="userSpaceOnUse"
       x1="292.17999"
       y1="464.98001"
       x2="292.17999"
       y2="464.98001" />
  </defs>
  <g
     id="g692"
     transform="matrix(1.7230583,0,0,1.7230583,-459.2545,-1367.0059)"
     style="stroke-width:0.580364">
    <g
       id="g122"
       transform="matrix(0.2919199,0,0,0.2919199,207.55811,750.42594)"
       style="stroke-width:1.98823">
      <g
         id="g108"
         style="stroke-width:1.98823">
        <path
           class="cls-15"
           d="m 516.61,270.1 c -0.07,1.63 -0.51,3.27 -1.39,6.28 -0.02,0.04 -0.03,0.1 -0.04,0.14 0.11,-1.08 0.26,-2.13 0.47,-3.11 0.25,-1.15 0.57,-2.26 0.96,-3.31 z"
           id="path70"
           style="fill:url(#linearGradient696);stroke-width:1.98823" />
        <path
           class="cls-2"
           d="m 556.46,267.61 c -1.36,13.01 -7.45,22.44 -17.49,27.39 -7.08,3.51 -10.97,3.73 -16.13,0.99 -2.73,-1.41 -4.45,-2.52 -5.54,-4.02 -0.71,-1.63 -1.25,-3.43 -1.62,-5.28 0,0 0,-0.02 0,-0.03 -0.11,-1.34 -0.15,-2.92 -0.15,-4.82 0,-7.15 0.23,-8.14 2.43,-12.93 2.89,-6.01 8.91,-12.78 14.3,-15.83 2.14,-1.22 3.88,-2.21 4.03,-2.21 0.16,0 -1.59,1.68 -3.88,3.8 -1.19,1.08 -2.2,2.12 -3.06,3.14 3.19,-2.02 6.58,-3.89 11.43,-3.45 0.81,0.07 6.38,0.65 10.33,4.55 3.22,3.17 3.76,6.95 3.61,10.16 0.39,-0.9 0.81,-1.88 1.27,-2.98 0.69,-1.59 0.76,-1.36 0.46,1.53 z"
           id="path72"
           style="fill:url(#linear-gradient-2);stroke-width:1.98823" />
        <path
           class="cls-6"
           d="m 554.74,269.06 v 0 c -0.06,1.41 -0.26,2.72 -0.43,3.8 -1.14,7.31 -5.9,11.69 -8.82,14.38 -3.09,2.84 -6.48,5.86 -12.27,6.59 -1.99,0.25 -5.55,0.75 -9.06,-1 -4.95,-2.46 -6.29,-7.61 -6.93,-10.04 -1.33,-5.05 0,-8.94 0.98,-11.65 1.07,-2.98 3.75,-8.58 10.3,-12.77 0.28,-0.18 0.56,-0.36 0.85,-0.54 v 0 c 3.19,-2.03 6.58,-3.9 11.43,-3.46 0.81,0.07 6.38,0.65 10.33,4.55 3.22,3.17 3.76,6.95 3.61,10.16 z"
           id="path74"
           style="stroke-width:1.98823" />
        <path
           class="cls-9"
           d="m 524.85,291.59 c -4.45,-2.22 -5.65,-6.91 -6.22,-9.12 -1.18,-4.59 0.03,-8.13 0.92,-10.6 0.97,-2.72 3.41,-7.82 9.32,-11.65 3.12,-2.02 6.32,-4.1 11.1,-3.68 0.72,0.06 5.75,0.57 9.31,4.11 4.16,4.14 3.33,9.45 2.82,12.68 -1.05,6.65 -5.35,10.65 -8,13.1 -2.8,2.59 -5.86,5.35 -11.08,6.03 -1.8,0.23 -5.01,0.7 -8.17,-0.88 z"
           id="path76"
           style="stroke-width:1.98823" />
        <path
           class="cls-12"
           d="m 525.76,290.51 c -3.93,-1.97 -5,-6.1 -5.5,-8.06 -1.04,-4.06 0.03,-7.19 0.81,-9.36 0.86,-2.4 3.01,-6.91 8.24,-10.3 2.76,-1.78 5.59,-3.62 9.81,-3.25 0.64,0.06 5.08,0.5 8.22,3.63 3.68,3.66 2.94,8.35 2.49,11.21 -0.92,5.88 -4.73,9.41 -7.07,11.58 -2.47,2.29 -5.18,4.73 -9.79,5.33 -1.6,0.21 -4.43,0.62 -7.22,-0.78 z"
           id="path78"
           style="stroke-width:1.98823" />
        <path
           class="cls-8"
           d="m 522.04,275.73 c 0.45,-0.77 1.68,-2.6 4.31,-3.54 2.81,-1 5.52,-0.37 7.36,0.06 3.13,0.73 5.1,2.05 7.86,3.91 2.24,1.51 2.98,2.4 3.36,3.33 0.56,1.35 0.26,2.5 0.18,2.82 -0.11,0.41 -0.44,1.36 -2.31,2.91 -2.07,1.71 -4.14,2.59 -4.75,2.84 -2.3,0.94 -4.02,1.64 -6.54,1.5 -0.96,-0.05 -3.82,-0.24 -6.44,-2.15 -2.78,-2.03 -3.45,-4.65 -3.7,-5.66 -0.74,-2.94 0.23,-5.17 0.67,-6.04 z"
           id="path80"
           style="stroke-width:1.98823" />
        <path
           class="cls-3"
           d="m 527.24,284.28 c -0.75,0.2 -2.08,-0.8 -2.74,-1.84 -0.86,-1.34 -0.56,-2.66 -0.3,-3.78 0.24,-1.04 0.64,-2.79 2.5,-4.14 1.78,-1.29 3.82,-1.41 4.51,-1.44 2.85,-0.14 5.06,0.97 5.8,1.38 0.8,0.45 2.17,1.22 3.12,2.7 1.27,1.97 0.91,3.79 0.8,4.32 -0.37,1.7 -1.47,2.67 -1.91,3.05 -0.43,0.36 -1.62,1.38 -2.36,1.05 -0.57,-0.25 -0.3,-1.03 -1.2,-2.43 -0.29,-0.44 -0.58,-0.89 -1.13,-1.3 -1.49,-1.1 -3.42,-0.83 -3.53,-0.81 -1.44,0.22 -2.24,1.09 -2.47,1.38 -0.77,0.95 -0.48,1.7 -1.07,1.85 z"
           id="path82"
           style="stroke-width:1.98823" />
        <path
           class="cls-14"
           d="m 408.7,290.86 c 7.32,-2.45 9.79,-13.39 11.15,-19.44 2.93,-13.01 -1.36,-22.73 -3.45,-27.45 -1.14,-2.57 -3.5,-7.29 -8.44,-11.76 -3.2,-2.9 -7.26,-6.58 -11.17,-5.43 -2.83,0.83 -4.34,3.92 -7.25,10.08 -1.9,4.01 -3.33,7.05 -4.47,12.01 -1.78,7.77 -4.13,17.99 0.76,27.39 4.19,8.05 14.64,17.35 22.87,14.59 z"
           id="path84"
           style="fill:url(#linear-gradient-3);stroke-width:1.98823" />
        <path
           class="cls-6"
           d="m 404.73,285.84 c -5.38,1.24 -9.69,-1.87 -11.73,-3.35 -4.23,-3.05 -5.68,-6.9 -6.64,-9.61 -1.07,-2.98 -2.56,-9.01 -0.17,-16.4 1.26,-3.9 2.55,-7.9 6.94,-10.9 0.67,-0.45 5.33,-3.55 10.86,-3.05 6.48,0.58 9.48,5.66 11.31,8.75 3.77,6.36 2.87,12.77 2.33,16.69 -0.58,4.16 -1.28,8.64 -5.27,12.88 -1.38,1.47 -3.81,4.11 -7.62,4.99 z"
           id="path86"
           style="stroke-width:1.98823" />
        <path
           class="cls-9"
           d="m 404.47,284.45 c -4.85,1.11 -8.75,-1.74 -10.6,-3.08 -3.83,-2.79 -5.14,-6.3 -6.03,-8.76 -0.98,-2.72 -2.34,-8.2 -0.21,-14.91 1.12,-3.54 2.28,-7.18 6.23,-9.89 0.6,-0.41 4.79,-3.21 9.79,-2.74 5.84,0.55 8.57,5.18 10.23,7.99 3.42,5.8 2.63,11.62 2.15,15.19 -0.51,3.78 -1.12,7.86 -4.71,11.69 -1.24,1.33 -3.42,3.72 -6.86,4.51 z"
           id="path88"
           style="stroke-width:1.98823" />
        <path
           class="cls-12"
           d="m 404.49,283.03 c -4.28,0.98 -7.73,-1.53 -9.37,-2.72 -3.38,-2.47 -4.54,-5.56 -5.33,-7.74 -0.86,-2.4 -2.07,-7.25 -0.18,-13.18 0.99,-3.13 2.01,-6.34 5.5,-8.74 0.53,-0.36 4.24,-2.84 8.65,-2.42 5.16,0.49 7.58,4.58 9.04,7.06 3.02,5.12 2.33,10.27 1.9,13.42 -0.45,3.34 -0.99,6.94 -4.17,10.33 -1.1,1.17 -3.02,3.29 -6.06,3.99 z"
           id="path90"
           style="stroke-width:1.98823" />
        <path
           class="cls-8"
           d="m 392.23,274 c -0.15,-0.88 -0.36,-3.08 1.08,-5.47 1.53,-2.55 4.03,-3.79 5.72,-4.63 2.87,-1.43 5.23,-1.66 8.55,-1.98 2.69,-0.26 3.82,-0.04 4.71,0.43 1.29,0.69 1.79,1.76 1.93,2.06 0.18,0.39 0.53,1.33 0.07,3.72 -0.51,2.64 -1.55,4.62 -1.86,5.21 -1.18,2.18 -2.06,3.82 -4.09,5.31 -0.77,0.57 -3.1,2.24 -6.33,2.43 -3.44,0.2 -5.62,-1.4 -6.45,-2.01 -2.44,-1.79 -3.11,-4.13 -3.32,-5.09 z"
           id="path92"
           style="stroke-width:1.98823" />
        <path
           class="cls-3"
           d="m 401.67,277.29 c -0.45,0.63 -2.11,0.7 -3.28,0.33 -1.52,-0.49 -2.12,-1.69 -2.64,-2.73 -0.48,-0.95 -1.28,-2.56 -0.7,-4.78 0.55,-2.12 2.05,-3.51 2.56,-3.98 2.11,-1.92 4.52,-2.47 5.35,-2.62 0.9,-0.17 2.45,-0.44 4.13,0.1 2.23,0.71 3.11,2.34 3.36,2.83 0.8,1.54 0.56,2.99 0.46,3.56 -0.1,0.55 -0.37,2.1 -1.15,2.31 -0.6,0.17 -0.89,-0.61 -2.47,-1.11 -0.5,-0.16 -1.01,-0.32 -1.7,-0.28 -1.85,0.1 -3.16,1.53 -3.24,1.62 -0.97,1.09 -1.03,2.26 -1.03,2.64 0,1.23 0.71,1.62 0.36,2.11 z"
           id="path94"
           style="stroke-width:1.98823" />
        <path
           class="cls-16"
           d="m 327.93,430.76 c 4.68,-6.33 0.33,-16.91 -2.07,-22.76 -5.17,-12.58 -14.45,-18.18 -18.96,-20.9 -2.45,-1.48 -7.19,-4.03 -13.93,-4.88 -4.37,-0.54 -9.92,-1.24 -12.51,2.01 -1.88,2.35 -1.33,5.82 -0.15,12.67 0.77,4.46 1.35,7.84 3.3,12.64 3.06,7.53 7.09,17.44 16.68,22.43 8.22,4.27 22.38,5.91 27.64,-1.21 z"
           id="path96"
           style="fill:url(#linear-gradient-4);stroke-width:1.98823" />
        <path
           class="cls-6"
           d="m 321.67,428.89 c -3.76,4.19 -9.19,4.11 -11.76,4.08 -5.32,-0.07 -8.78,-2.44 -11.17,-4.13 -2.64,-1.86 -7.41,-6.02 -9.75,-13.59 -1.23,-3.99 -2.5,-8.09 -0.59,-13.17 0.29,-0.77 2.37,-6.09 7.28,-8.91 5.75,-3.31 11.23,-0.83 14.57,0.68 6.87,3.11 9.88,8.98 11.72,12.57 1.95,3.81 4,7.97 3.14,13.84 -0.3,2.03 -0.78,5.66 -3.44,8.63 z"
           id="path98"
           style="stroke-width:1.98823" />
        <path
           class="cls-9"
           d="m 320.64,427.88 c -3.4,3.77 -8.32,3.68 -10.65,3.63 -4.83,-0.09 -7.98,-2.25 -10.16,-3.78 -2.41,-1.7 -6.75,-5.48 -8.91,-12.33 -1.13,-3.61 -2.3,-7.33 -0.59,-11.9 0.26,-0.69 2.12,-5.49 6.57,-8.02 5.2,-2.96 10.19,-0.7 13.22,0.68 6.25,2.84 9,8.16 10.69,11.42 1.79,3.45 3.66,7.22 2.91,12.52 -0.26,1.84 -0.68,5.11 -3.09,7.78 z"
           id="path100"
           style="stroke-width:1.98823" />
        <path
           class="cls-12"
           d="m 319.82,426.69 c -3,3.33 -7.36,3.25 -9.41,3.21 -4.27,-0.08 -7.05,-1.98 -8.98,-3.34 -2.13,-1.5 -5.97,-4.84 -7.87,-10.9 -1,-3.19 -2.04,-6.48 -0.52,-10.52 0.23,-0.61 1.88,-4.85 5.81,-7.09 4.6,-2.62 9.01,-0.62 11.69,0.6 5.53,2.51 7.96,7.21 9.45,10.09 1.58,3.05 3.24,6.38 2.57,11.07 -0.23,1.62 -0.6,4.52 -2.73,6.88 z"
           id="path102"
           style="stroke-width:1.98823" />
        <path
           class="cls-8"
           d="m 304.29,426.32 c -0.64,-0.65 -2.1,-2.36 -2.3,-5.2 -0.21,-3.03 1.14,-5.52 2.06,-7.21 1.56,-2.87 3.4,-4.45 5.98,-6.66 2.09,-1.79 3.16,-2.27 4.19,-2.4 1.48,-0.18 2.53,0.42 2.82,0.59 0.37,0.22 1.22,0.8 2.23,3.06 1.12,2.5 1.42,4.77 1.49,5.44 0.29,2.51 0.51,4.39 -0.3,6.83 -0.31,0.93 -1.27,3.69 -3.86,5.74 -2.75,2.18 -5.51,2.12 -6.56,2.1 -3.09,-0.07 -5.02,-1.63 -5.75,-2.3 z"
           id="path104"
           style="stroke-width:1.98823" />
        <path
           class="cls-3"
           d="m 314.11,423.54 c -0.01,0.79 -1.35,1.82 -2.55,2.19 -1.55,0.48 -2.76,-0.17 -3.8,-0.73 -0.96,-0.52 -2.57,-1.39 -3.39,-3.58 -0.78,-2.1 -0.35,-4.13 -0.19,-4.82 0.64,-2.84 2.33,-4.71 2.94,-5.32 0.66,-0.67 1.79,-1.8 3.5,-2.33 2.28,-0.71 3.97,0.14 4.46,0.39 1.57,0.82 2.22,2.17 2.47,2.71 0.24,0.52 0.92,1.97 0.39,2.61 -0.4,0.49 -1.1,0.01 -2.71,0.52 -0.51,0.16 -1.03,0.33 -1.58,0.76 -1.48,1.16 -1.74,3.13 -1.76,3.25 -0.17,1.48 0.46,2.49 0.69,2.81 0.73,1.02 1.54,0.93 1.53,1.55 z"
           id="path106"
           style="stroke-width:1.98823" />
      </g>
      <path
         class="cls-7"
         d="m 573.29,589.95 8.37,-9.05 c 19.47,-21.06 52.86,-49.58 59.62,-50.95 4.03,-0.76 3.96,-0.76 8.9,0.15 6.24,1.14 13,4.57 16.96,8.6 l 3.35,3.42 -6.77,6.24 c -23.19,21.37 -49.28,50.72 -70.27,79.02 -7.75,10.49 -23.58,33.99 -23.58,35.06 0,0.39 -0.46,0.68 -0.98,0.68 -0.61,0 -2.13,-2.89 -3.5,-6.61 -5.78,-14.98 -15.97,-32.7 -26.62,-46.09 -18.1,-22.75 -43.5,-43.73 -68.82,-56.89 l -8.29,-4.34 5.17,-3.8 c 6.31,-4.64 14.07,-8.52 21.67,-10.87 11.41,-3.57 26.24,-2.13 37.57,3.64 16.5,8.37 33.62,26.47 44.95,47.46 l 2.28,4.34 z"
         id="path110"
         style="stroke-width:1.98823" />
      <path
         class="cls-7"
         d="m 770.04,475.64 c -17.79,8.36 -34.45,17.56 -47.46,26.39 -2.35,1.6 -4.56,2.89 -4.79,2.89 -0.31,0 -2.44,-1.68 -4.79,-3.73 -2.36,-1.98 -5.63,-4.56 -7.3,-5.62 l -2.9,-1.91 2.36,-1.29 c 3.12,-1.6 14.6,-5.94 22.89,-8.75 12.78,-4.26 24.48,-7.23 37.65,-9.51 9.65,-1.67 10.56,-1.36 4.33,1.53 z"
         id="path112"
         style="stroke-width:1.98823" />
      <path
         class="cls-4"
         d="m 741.38,579.53 c -1.83,-15.9 -7,-37.04 -11.79,-47.62 -0.77,-1.67 -2.37,-5.31 -3.66,-8.13 -4.25,-9.51 -19.53,-24.27 -29.35,-28.38 -1.52,-0.6 -2.74,-1.29 -2.74,-1.51 0,-0.15 1.29,-0.99 2.89,-1.83 9.81,-5.02 15.44,-13.23 13.84,-20.16 -1.45,-6.61 -7.68,-8.97 -15.05,-5.77 -4.26,1.83 -5.55,3.95 -3.95,6.77 0.34,0.66 0.66,1.1 1.12,1.33 1.25,0.64 2.66,-0.2 4.96,-0.88 1.08,-0.31 2.64,-0.66 4.65,-0.76 4.15,2.41 4.45,4.79 4.48,5.4 0.23,3.83 -5.35,6.78 -10.19,9.35 -2.59,1.37 -5.14,2.54 -8.61,2.79 -1.86,0.12 -3.71,-0.14 -6.07,-0.73 -2.59,-0.69 -6,-1.22 -7.68,-1.22 -1.68,0 -3.26,-0.31 -3.49,-0.61 -0.23,-0.37 1.29,-1.9 3.34,-3.42 7.3,-5.48 13.08,-14.68 14.14,-22.44 0.69,-5.4 -1.52,-10.11 -5.71,-12.31 -3.26,-1.68 -5.31,-1.52 -9.5,0.53 -1.92,0.94 -6.33,3.46 -6.54,7.23 -0.02,0.35 -0.07,1.58 0.68,2.72 1.15,1.72 3.65,2.49 5.27,1.75 1.27,-0.57 1.12,-1.64 2.34,-3.1 1.98,-2.4 5.98,-3.87 8.05,-2.61 1.5,0.92 2.07,3.39 1.52,7.32 -0.6,4.19 -3.11,8.37 -8.97,14.76 -5.86,6.39 -10.34,9.13 -16.65,10.19 -2.82,0.38 -6.01,1.14 -7.15,1.52 -1.14,0.46 -2.2,0.6 -2.43,0.46 -0.15,-0.23 0.77,-2.06 2.05,-4.03 7.99,-11.94 11.56,-25.18 9.2,-33.7 -0.13,-0.46 -3.55,-10.93 -12.85,-12.93 -5.08,-1.08 -11.62,0.43 -15.5,5.43 -3.33,4.31 -3.16,9.19 -3.06,10.62 l 1.53,2.05 c 0.98,1.29 2.34,2.14 3.87,2.29 2.06,0.23 2.66,-0.23 5.32,-3.89 3.65,-4.86 7.14,-7.98 9.82,-8.67 4.72,-1.14 7.99,7.07 6.69,16.66 -1.52,11.33 -12.25,27.45 -24.57,36.73 -4.71,3.57 -10.96,10.94 -14.45,16.96 -2.51,4.4 -6.23,14.98 -6.23,17.72 0,1.45 0.15,1.45 3.28,-0.38 11.79,-6.76 26.69,-10.27 37.49,-8.74 10.73,1.52 18.56,6.91 25.79,17.72 14.59,22.06 15.28,51.8 1.9,80.76 -8.67,18.87 -23.5,37.19 -39.55,49.14 -6.23,4.65 -20.98,13.23 -28.75,16.66 C 563.8,711.79 509.88,702.81 472.85,667.44 460.29,655.5 453.29,646 446.07,631.47 c -30.49,-61.68 -5.09,-136.98 56.51,-167.63 36.04,-17.95 77.35,-17.95 112.93,0 10.28,5.26 18.87,6.55 28.14,4.43 4.72,-1.07 6.16,-2.83 6.32,-7.77 0.14,-4.4 -0.77,-5.17 -2.83,-2.36 -3.26,4.48 -3.9,4.66 -4.34,5.09 -2.65,2.78 -6.95,2.78 -8.14,2.78 -4.09,0 -9.36,-1.96 -11.07,-6.09 -0.69,-1.67 -0.48,-3.2 -0.48,-4.45 0,-8.91 7.68,-20 15.28,-22.05 4.63,-1.29 13,-0.53 16.28,1.51 1.36,0.84 4.42,3.66 6.76,6.09 2.29,2.51 4.49,4.57 4.88,4.57 0.39,0 1.45,-0.92 2.51,-1.98 1.68,-1.82 1.83,-2.51 1.83,-10.05 0,-9.65 -1.6,-14.75 -6.78,-21.67 -4.4,-5.86 -9.73,-9.81 -19.47,-14.36 -19.53,-9.2 -37.63,-14.6 -59.7,-17.8 -13.08,-1.91 -40.61,-1.75 -53.62,0.31 -5.25,0.76 -9.65,1.29 -9.82,1.21 -0.3,-0.3 1.6,-4.25 18.56,-39.47 2,-4.08 4.66,-9.53 7.34,-15.11 12.66,-9.82 18.89,-15.06 20.88,-17.53 1.11,-1.49 5.11,-5.81 8.8,-9.73 3.68,-3.86 6.67,-7.15 6.67,-7.31 0,-0.56 -9.27,6.11 -10.91,8.01 -1.11,1.1 -2.28,2.05 -2.75,2.05 -0.47,0 -0.32,-0.48 0.32,-1.03 2.43,-1.96 11.93,-13.11 11.23,-13.11 -0.48,0 -3.31,2.75 -6.37,6.12 -3.06,3.37 -7.61,7.54 -10.13,9.27 -2.51,1.64 -4.71,3.3 -4.95,3.53 -0.23,0.32 -1.25,0.79 -2.36,1.11 -0.73,0.21 -1.44,0.53 -1.9,0.81 0.68,-1.39 1.39,-2.88 2.14,-4.43 2.83,-1.7 5.27,-3.4 8.01,-5.65 5.65,-4.63 20.82,-19.63 20.82,-20.65 0,-1.18 1.96,-3.22 6.52,-6.91 2.04,-1.64 3.6,-3.13 3.45,-3.3 -0.15,-0.24 -2.43,0.7 -4.95,2.04 l -4.63,2.43 3.54,-3.21 c 6.28,-5.74 13.19,-9.98 17.59,-10.76 2.83,-0.47 2.36,-1.02 -0.79,-1.02 -1.64,0.08 -4.63,0.7 -6.68,1.48 -4.47,1.73 -11.54,6.53 -18.53,12.49 -2.9,2.6 -6.84,5.58 -8.72,6.76 -2.98,1.88 -6.43,6.05 -6.43,7.78 0,0.38 1.25,0 2.83,-0.95 1.49,-0.94 2.98,-1.64 3.3,-1.64 0.94,0 -4,4 -6.52,5.26 -0.44,0.25 -1.04,0.65 -1.74,1.15 1.74,-3.6 3.33,-6.93 4.6,-9.53 0.5,-1.06 1,-2.06 1.46,-3.01 v 0.71 l 2.2,-1.49 c 1.17,-0.87 4.79,-4.01 8.01,-6.99 3.22,-2.98 7.3,-6.51 9.1,-7.78 1.73,-1.25 3.14,-2.66 3.23,-3.06 0,-0.47 1.8,-2.05 4.08,-3.54 2.2,-1.49 3.69,-2.83 3.3,-2.98 -1.8,-0.62 -13.04,6.52 -18.69,11.86 -3.69,3.45 -3.22,2.19 0.78,-1.97 5.27,-5.58 11.56,-13.03 11.56,-13.74 0,-1.34 9.1,-13.82 13.03,-17.9 2.37,-2.37 4.09,-4.32 3.86,-4.32 -0.79,0 -6.37,3.85 -9.19,6.43 -1.58,1.41 -4.71,4.71 -6.99,7.31 -2.28,2.6 -3.85,4.01 -3.54,3.13 0.41,-0.85 1.34,-3.53 2.2,-5.88 0.87,-2.36 2.2,-5.19 3.07,-6.37 0.79,-1.17 1.33,-2.67 1.1,-3.21 -0.7,-1.82 2.28,-7.7 6.37,-12.81 8.95,-11 15.3,-15.32 22.69,-15.55 2.28,-0.08 4.01,-0.47 3.77,-0.87 -0.7,-1.1 -8.95,0.23 -12.72,2.04 -1.88,0.94 -5.81,3.93 -8.72,6.68 -2.9,2.66 -5.73,4.94 -6.19,4.94 -1.58,0 5.34,-9.18 10.2,-13.66 4.24,-3.93 10.68,-7.78 12.95,-7.78 0.56,0 0.88,-0.32 0.71,-0.62 -0.62,-0.94 -5.58,0.55 -10.06,3.14 -4.7,2.66 -11.93,9.97 -16.72,16.88 -1.73,2.43 -3.46,4.39 -3.92,4.39 -0.46,0 -1.34,0.55 -1.88,1.18 -2.99,3.6 -0.56,-2.99 3.76,-10.21 1.58,-2.6 4.33,-6.84 6.29,-9.42 l 3.45,-4.72 -3.85,4.02 c -3.3,3.45 -11.93,16.95 -16.33,25.59 -0.85,1.64 -1.81,2.98 -2.2,2.98 -0.31,0 -0.46,-0.23 -0.31,-0.62 0.16,-0.32 1.65,-3.39 3.21,-6.84 6.06,-12.8 13.05,-23.63 19.64,-30.39 3.53,-3.6 9.35,-7.69 10.99,-7.69 0.71,0 2.6,-0.7 4.16,-1.58 1.64,-0.85 3.62,-1.57 4.33,-1.57 0.61,0 1.13,-0.2 1.33,-0.47 -0.5,-0.18 -1,-0.35 -1.49,-0.53 -5.04,0.74 -20.56,7.31 -22.14,9.87 -0.32,0.47 -0.71,0.7 -1.02,0.47 -0.88,-0.94 9.1,-9.35 11.14,-9.35 0.32,0 1.49,-0.78 2.6,-1.64 l 1.96,-1.57 -2.99,1.17 c -1.72,0.7 -5.34,2.83 -8.16,4.86 l -5.18,3.54 1.73,-2.59 c 3.53,-5.35 7.86,-14.78 6.75,-14.78 -0.15,0 -1.25,2.21 -2.59,4.88 -3.77,8.17 -12.17,18.3 -17.59,21.36 l -2.59,1.49 2.04,-2.28 c 1.1,-1.25 2.83,-3.14 3.77,-4.24 0.94,-1.1 3.3,-4.32 5.27,-7.23 3.06,-4.62 3.45,-5.81 3.36,-9.42 l -0.08,-4.16 -0.94,4.09 c -1.64,6.76 -3.85,9.19 -12.4,13.58 -4.24,2.2 -7.69,3.77 -7.69,3.54 0,-0.87 5.26,-8.64 6.51,-9.74 0.79,-0.55 1.34,-1.41 1.34,-1.81 0,-0.4 -0.62,-0.15 -1.34,0.64 -1.25,1.17 -1.33,1.17 -1.88,-0.16 -0.38,-1.17 -0.62,-1.02 -1.02,1.11 -0.47,1.81 -2.51,4.24 -7.38,8.71 -7.69,7.07 -15.07,13.04 -15.07,12.25 0,-0.31 1.18,-1.96 2.67,-3.77 1.41,-1.8 3.21,-4.39 3.92,-5.65 0.71,-1.34 2.2,-3.62 3.37,-5.11 1.34,-1.73 0.32,-1.02 -2.59,1.81 -3.53,3.45 -7.08,5.74 -14.84,9.59 -5.58,2.83 -10.2,4.94 -10.36,4.86 -0.39,-0.47 -6.44,4.95 -13.28,11.7 -5.34,5.35 -6.75,7.31 -8.86,12.49 -0.39,0.94 -0.73,1.77 -1.02,2.53 -0.54,0.41 -1.17,0.94 -1.84,1.54 0.26,-0.9 0.56,-1.85 0.89,-2.83 1.49,-4.47 2.6,-8.95 2.44,-9.81 q -0.32,-1.58 -0.47,-0.08 c 0,0.85 -1.65,6.11 -3.62,11.77 -0.28,0.8 -0.55,1.62 -0.82,2.45 -1.39,1.36 -2.78,2.86 -3.76,4.04 0.08,-1.83 0.09,-3.31 0.02,-4.14 q -0.24,-3.77 -0.47,-0.78 l -0.31,3.14 -0.56,-2.75 q -0.55,-2.6 -0.7,-0.55 c -0.15,3.53 -2.44,10.84 -3.3,10.35 -0.39,-0.31 -0.71,-0.85 -0.71,-1.25 0,-3.37 -5.65,-10.92 -8.16,-10.92 -0.47,0 0.08,0.64 1.1,1.34 2.83,1.97 3.45,2.67 4.86,5.74 2.2,4.86 2.91,8.4 2.13,11.55 -0.07,0.28 -0.13,0.6 -0.21,0.94 -1.56,3.26 -3.39,7.07 -5.32,11.09 -5.63,11.57 -10.27,21.14 -10.27,21.3 0,0.08 -3.66,7.68 -8.06,16.81 -4.42,9.2 -9.74,20.07 -11.72,24.27 -3.26,7 -11.56,24.1 -28.44,59.24 -3.57,7.46 -6.53,13.92 -6.53,14.23 0,0.37 -0.31,0.68 -0.77,0.68 -0.54,0 -0.77,-26.47 -0.77,-77.88 0,-22.69 -0.01,-38.78 -0.05,-50.34 0.71,-2.2 1.85,-4.54 2.65,-5.32 1.33,-1.41 1.33,-1.65 0.23,-1.18 -0.71,0.23 -1.34,0.23 -1.34,-0.09 0,-0.78 2.04,-8.16 2.67,-9.56 0.31,-0.88 0.08,-1.27 -0.87,-1.35 -0.91,-0.07 -1.86,1.16 -3.44,4.66 -0.04,-4.02 -0.11,-7.11 -0.19,-9.52 0.44,-2.45 0.92,-5.2 1.42,-8.16 0.24,-1.58 0.32,-2.91 0.09,-2.91 -0.23,0 -0.71,1.34 -1.18,2.91 -0.14,0.65 -0.37,1.69 -0.61,2.94 -0.21,-2.47 -0.5,-3.57 -0.91,-4.89 -0.45,-1.48 -1.01,-2.93 -1.65,-4.34 -0.69,-3.08 -1.67,-6.24 -2.87,-9.26 -1.18,-2.75 -2.51,-6.29 -3.14,-7.78 -0.55,-1.5 -1.02,-2.44 -1.1,-2.04 0,0.39 -1.88,-2.05 -4.09,-5.27 -2.28,-3.3 -5.18,-7.38 -6.35,-9.12 -1.26,-1.64 -3.07,-5.49 -4.09,-8.47 -1.65,-4.56 -1.88,-4.88 -1.58,-2.2 0.16,1.73 0.56,5.26 0.8,7.84 0.22,2.52 0.61,5.58 0.85,6.68 0.7,3.3 -3.3,-5.73 -6.75,-15.07 -2.43,-6.6 -3.14,-9.59 -2.83,-11.62 0.31,-1.81 0.15,-2.36 -0.32,-1.58 -0.55,0.95 -0.87,0.79 -1.58,-0.78 -0.7,-1.65 -0.7,-1.49 -0.31,1.17 0.87,5.74 1.1,10.92 0.38,10.13 -0.38,-0.39 -2.59,-3.22 -4.86,-6.2 -4.16,-5.42 -4.24,-5.59 -4.24,-11 0,-3.06 0.32,-6.6 0.64,-7.86 0.55,-1.95 0.38,-1.81 -0.87,0.71 -1.02,1.96 -1.65,2.67 -1.96,1.96 -0.88,-2.04 0.31,11.47 1.49,17.19 0.7,3.23 1.02,5.98 0.78,6.21 -0.93,0.94 -3.45,-6.6 -4.78,-13.98 -0.71,-4.16 -1.19,-9.74 -1.03,-12.41 0.08,-2.59 0,-4.78 -0.31,-4.78 -0.71,0 -0.88,2.98 -0.71,11.37 l 0.08,5.5 -3.07,-5.72 c -3.13,-5.89 -5.5,-9.12 -6.2,-8.41 -0.23,0.16 0.55,1.58 1.73,3.14 2.2,2.83 4.86,8.33 5.96,12.26 0.94,3.21 0.41,2.82 -1.64,-1.27 -0.94,-1.96 -2.6,-4.31 -3.62,-5.26 -1.02,-0.94 -1.81,-2.04 -1.81,-2.51 0,-0.47 -2.11,-2.83 -4.7,-5.26 -4.4,-4.24 -5.42,-6.28 -2.21,-4.56 0.79,0.47 1.9,0.62 2.44,0.47 0.55,-0.24 -0.39,-0.94 -1.96,-1.65 q -3.54,-1.49 -4.01,-0.15 c -0.24,0.55 0.56,2.05 1.81,3.22 1.34,1.26 2.04,2.67 1.81,3.45 -0.31,1.11 -0.23,1.11 0.47,0.08 0.64,-0.94 0.85,-0.94 0.85,-0.08 0,0.56 0.88,1.73 1.97,2.6 1.88,1.49 5.58,7.86 6.35,10.76 0.16,0.7 0.88,3.37 1.5,5.97 1.41,5.26 2.27,33.14 1.17,36.52 -0.46,1.41 -0.62,0.08 -0.7,-4.33 -0.16,-8.86 -1.49,-23.87 -2.43,-26.7 -0.56,-1.73 -0.64,-0.85 -0.24,3.54 0.62,8.01 0.79,16.56 0.38,18.3 -0.7,2.83 -2.97,-2.83 -4.06,-10.06 -1.73,-11.78 -5.5,-20.88 -10.22,-24.97 -2.51,-2.13 -2.9,-0.93 -0.55,1.5 3.69,3.68 8.4,17.51 8.4,24.81 0,2.82 -1.26,1.34 -2.6,-2.99 -2.11,-6.83 -4.39,-11.47 -7.14,-14.3 -2.6,-2.83 -6.6,-5.26 -7.3,-4.55 -0.24,0.23 0.39,0.78 1.49,1.18 1.58,0.61 3.77,2.74 7.69,7.69 0.48,0.55 0.79,1.25 0.79,1.64 0,0.39 0.47,1.73 1.11,2.99 2.04,4.09 4.47,18.3 3.85,22.61 -0.48,3.77 -0.56,3.85 -1.1,1.65 -0.41,-1.26 -0.88,-3.39 -1.03,-4.72 -0.23,-1.25 -0.94,-3.77 -1.64,-5.49 -0.64,-1.73 -1.03,-2.28 -0.79,-1.18 2.27,9.82 2.98,16.49 2.27,22.78 l -0.7,6.67 -1.81,-6.98 c -1.57,-6.38 -6.2,-17.53 -6.84,-16.82 -0.15,0.16 0.39,2.67 1.19,5.58 1.56,5.58 3.45,20.1 2.74,20.82 -0.23,0.23 -0.39,-0.24 -0.39,-1.03 0,-0.79 -0.23,-1.25 -0.47,-0.93 -0.23,0.23 0.24,2.66 1.1,5.41 1.97,6.05 3.63,13.19 3.14,13.58 -0.15,0.24 -1.34,-1.88 -2.51,-4.56 -2.9,-6.35 -6.6,-12.17 -8.33,-13.11 -1.02,-0.55 -0.7,0.48 1.26,3.69 1.49,2.51 2.51,5.03 2.27,5.58 -0.22,0.64 0.24,2.2 1.11,3.62 0.79,1.34 2.83,6.12 4.39,10.68 1.35,3.7 2.78,7.5 3.62,9.48 0,1.24 -0.01,2.52 -0.02,3.86 -0.24,-0.54 -0.53,-1.11 -0.84,-1.71 -1.41,-2.67 -3.37,-7.15 -4.47,-9.98 -1.03,-2.83 -3.22,-7.69 -4.8,-10.68 -3.06,-5.81 -9.58,-12.95 -11.78,-12.95 -1.01,0.08 -0.79,0.46 0.79,1.65 2.59,1.95 6.99,9.03 9.18,14.83 2.29,5.88 2.05,6.44 -0.78,2.04 -1.34,-2.04 -2.6,-3.53 -2.83,-3.37 -0.16,0.23 0.64,2.6 1.81,5.35 1.1,2.75 2.04,5.88 2.04,6.99 -0.08,4.09 6.52,24.49 10.13,31.4 0.44,0.82 0.94,1.76 1.47,2.72 -0.01,1.91 -0.01,3.88 -0.01,5.91 -1.52,-0.65 -7.01,-13 -9.39,-21.1 -1.34,-4.56 -2.59,-8.4 -2.83,-8.64 -0.71,-0.62 0.32,3.62 2.9,12.88 2.13,7.7 2.6,11.23 0.7,5.35 -1.49,-4.63 -6.28,-14.61 -6.75,-14.14 -0.24,0.16 0.15,2.11 0.78,4.16 0.64,2.11 1.65,5.82 2.29,8.17 3.68,13.9 4.86,17.43 8.09,24.26 1.76,3.75 3.17,6.99 4.21,9.83 v 8.36 c -0.64,-2.6 -1.73,-5.68 -3.19,-9.07 -1.81,-4.33 -3.3,-8.48 -3.22,-9.27 0,-0.7 -0.23,-1.34 -0.62,-1.34 -0.39,0 -1.1,-1.49 -1.65,-3.37 -0.47,-1.81 -1.34,-4.16 -1.87,-5.27 -0.56,-1.1 -1.41,-3.36 -1.97,-5.09 -0.55,-1.73 -1.65,-4.56 -2.51,-6.28 l -1.41,-3.14 0.55,4.71 c 0.23,2.6 0.94,6.05 1.57,7.77 0.56,1.65 1.03,4.33 1.11,5.89 0,1.57 0.55,4.09 1.1,5.58 l 1.02,2.74 0.08,-2.34 c 0.09,-1.34 -0.47,-4.47 -1.1,-6.91 -1.49,-5.81 -1.49,-7.38 0.08,-3.3 0.71,1.72 1.34,5.81 1.5,9.03 0.14,3.62 1.02,8.17 2.27,11.78 1.11,3.22 1.81,5.03 1.65,3.92 -0.24,-1.1 -0.64,-3.92 -0.87,-6.28 -0.47,-3.92 -0.39,-4.16 0.62,-2.75 2.04,2.75 5.35,12.57 5.82,16.97 0.23,2.38 0.58,4.16 1.07,5.39 v 11.36 c 0,61.23 -0.3,111.28 -0.68,111.28 -0.31,0 -2.51,-4.03 -4.88,-8.98 -0.78,-1.63 -1.64,-3.45 -2.61,-5.44 l 0.25,-5.71 -0.69,4.78 c -0.79,-1.63 -1.62,-3.39 -2.51,-5.23 0.24,-5.08 0.23,-10.52 -0.18,-10.07 -0.16,0.16 -0.56,2.43 -0.79,5.03 -0.09,0.79 -0.2,1.62 -0.3,2.43 -1.38,-2.86 -2.87,-5.95 -4.46,-9.25 -0.05,-4.81 -0.24,-7.99 -0.5,-8.19 -0.39,-0.23 -0.71,-1.87 -0.79,-3.68 -0.08,-7.15 -1.25,-6.21 -1.73,1.41 -0.09,1.35 -0.18,2.57 -0.26,3.68 -1.34,-2.74 -2.72,-5.61 -4.15,-8.57 -0.07,-0.72 -0.13,-1.46 -0.21,-2.18 -0.71,-6.05 -4.01,-17.44 -6.52,-22.38 -1.11,-2.13 -2.05,-5.41 -2.05,-7.23 -0.08,-1.88 -0.32,-2.59 -0.47,-1.64 -0.15,1.02 -0.55,1.81 -0.87,1.81 -0.7,0 -4.86,-6.84 -4.86,-8.09 0,-0.56 -0.39,-1.5 -0.87,-2.13 -0.62,-0.87 -0.7,-0.55 -0.38,1.49 0.62,3.3 -0.24,2.67 -1.19,-0.87 q -0.61,-2.43 -0.38,-0.23 c 0.47,3.14 1.58,6.99 3.53,11.93 0.33,0.82 0.65,1.61 0.93,2.36 -3.32,-6.37 -5.62,-9.87 -8.16,-12.29 -0.15,-0.22 -0.31,-0.44 -0.46,-0.66 -2.43,-3.62 -5.18,-7.86 -6.12,-9.43 -1.02,-1.57 -1.81,-2.59 -1.81,-2.27 0,0.7 2.2,5.11 3.22,6.35 0.99,1.23 2.06,2.74 2.99,4.23 -0.8,-0.57 -1.65,-1.08 -2.59,-1.59 -1.57,-2.08 -3.36,-3.89 -5.43,-5.54 -4.32,-3.45 -10.13,-6.91 -15.47,-9.1 -2.36,-1.02 -4.94,-2.36 -5.65,-3.07 -0.79,-0.62 -1.41,-0.79 -1.41,-0.32 0,0.55 -0.79,0.64 -2.43,0.15 -1.34,-0.38 -5.35,-1.25 -8.8,-1.95 -3.53,-0.64 -7.22,-1.34 -8.16,-1.5 -2.43,-0.55 -7.08,-2.75 -11.24,-5.41 -3.29,-2.13 -3.36,-2.13 -1.17,-0.24 1.34,1.18 4.4,3.92 6.99,6.2 2.51,2.2 5.26,4.4 6.05,4.8 0.79,0.39 1.49,1.02 1.49,1.41 0,0.32 -0.62,0.32 -1.34,-0.08 -0.78,-0.39 -6.2,-3.07 -12.02,-5.98 -11.61,-5.65 -12.33,-6.11 -14.44,-9.03 -0.79,-1.1 -1.26,-1.33 -1.02,-0.62 0.55,1.64 -1.03,1.88 -2.44,0.47 -0.7,-0.7 -0.94,-0.7 -0.94,-0.08 0,0.55 0.71,1.17 1.58,1.41 0.94,0.32 3.45,2.27 5.73,4.48 2.28,2.11 3.45,3.68 2.75,3.45 -0.71,-0.16 -3.39,-0.79 -5.89,-1.18 -2.51,-0.47 -5.41,-1.02 -6.52,-1.25 -3.37,-0.64 -8.16,-4.65 -10.44,-8.64 -1.18,-2.19 -2.04,-3.21 -1.81,-2.36 0.24,0.87 0.62,2.6 0.94,3.85 0.56,2.37 4.01,5.82 11.23,11.23 2.43,1.82 5.26,4.01 6.37,4.86 l 1.96,1.65 -3.14,-1.25 c -3.68,-1.5 -7.37,-3.3 -8.56,-4.33 -0.47,-0.38 -2.98,-2.36 -5.58,-4.39 q -5.27,-4.16 -8.8,-8.33 c -1.41,-1.64 -2.59,-2.66 -2.59,-2.28 0,1.17 3.14,4.95 7.77,9.42 l 4.33,4.16 -5.82,-2.11 c -6.2,-2.28 -12.8,-3.62 -12.1,-2.51 0.24,0.32 1.02,0.62 1.73,0.62 2.19,0.08 11.78,3.69 14.53,5.49 1.34,0.95 1.81,1.5 0.94,1.18 -7.46,-2.75 -25.29,-4.79 -26.94,-3.22 -0.23,0.24 1.49,0.47 3.86,0.47 3.06,0 3.92,0.24 3.06,0.79 -0.78,0.55 -0.08,0.62 2.28,0.32 2.52,-0.39 4.95,0 8.87,1.34 2.9,0.94 5.34,2.04 5.34,2.43 0,0.32 0.39,0.62 0.87,0.62 3.46,0 30.56,25.76 30.56,28.98 0,0.39 0.47,0.94 1.02,1.1 0.47,0.24 0.55,0.47 0.08,0.47 -0.47,0.09 -3.14,-2.28 -5.89,-5.26 -7.54,-7.86 -16.64,-16.09 -19.63,-17.67 q -2.59,-1.41 0.48,1.18 c 4.31,3.53 16.09,15.46 16.09,16.26 0,1.25 -5.26,-1.11 -8.72,-3.93 -11.54,-9.18 -20.88,-13.42 -28.34,-12.96 -3.3,0.24 -3.3,0.95 0,1.11 3.76,0.23 7.3,1.4 12.87,4.15 5.18,2.61 14.69,10.3 13.28,10.76 -0.48,0.16 -1.34,-0.07 -1.9,-0.46 -1.95,-1.65 -8.4,-4.88 -12.08,-6.14 -4.88,-1.64 -9.66,-1.95 -13.11,-0.78 -3.93,1.34 -4.4,2.11 -0.79,1.1 1.73,-0.47 4.95,-0.55 7.38,-0.32 2.36,0.32 4.79,0.64 5.34,0.64 0.47,0.08 0.94,0.39 0.94,0.78 0,0.32 0.71,0.64 1.49,0.64 4.4,0 22.69,15.16 21.67,17.9 -0.23,0.55 0.64,1.96 1.97,2.98 1.26,1.11 3.69,4.09 5.42,6.61 l 3.06,4.71 -3.3,-2.28 c -5.26,-3.62 -14.76,-8.48 -17.75,-9.1 -2.36,-0.47 -1.97,-0.08 2.75,2.82 3.07,1.81 6.6,4.33 7.84,5.58 1.34,1.26 3.86,3.46 5.66,4.8 3.45,2.59 4.56,4.39 1.81,2.9 -0.88,-0.47 -1.58,-0.64 -1.58,-0.39 0,0.15 2.04,1.41 4.56,2.67 2.52,1.25 5.03,2.83 5.58,3.53 0.62,0.71 1.57,1.26 2.13,1.26 0.61,0 1.1,0.31 1.1,0.71 0,0.31 2.11,1.81 4.71,3.14 0.5,0.26 0.97,0.53 1.42,0.78 0.16,0.35 0.34,0.72 0.53,1.08 -1.04,-0.42 -2.31,-0.95 -3.68,-1.56 -3.62,-1.5 -7.61,-3.22 -9.04,-3.86 -2.59,-1.02 -11.14,-2.43 -10.44,-1.64 0.24,0.23 2.36,1.11 4.72,1.96 2.36,0.79 4.24,1.9 4.16,2.43 -0.16,0.48 0.38,0.88 1.17,0.88 0.79,0 6.37,2.43 12.41,5.41 1.07,0.55 2.16,1.07 3.2,1.58 0.48,0.99 0.98,2.02 1.5,3.09 -1.72,-0.71 -3.51,-1.49 -5.17,-2.23 -4.56,-2.04 -9.98,-4.24 -12.17,-4.95 -5.66,-1.8 -16.1,-2.11 -16.1,-0.46 0,0.46 0.55,0.62 1.34,0.38 2.83,-1.1 17.82,3.46 22.14,6.75 2.05,1.58 1.88,1.73 -0.87,0.71 -1.02,-0.31 -3.22,-0.85 -4.94,-1.17 l -3.14,-0.56 2.43,1.5 c 1.34,0.85 3.22,1.81 4.33,2.13 1.01,0.31 2.51,1.34 3.3,2.27 0.78,0.87 1.26,1.18 0.94,0.62 -0.87,-1.64 0.93,-1.02 2.11,0.88 0.71,0.93 2.2,2.27 3.46,2.9 1.25,0.62 3.53,1.96 5.02,2.98 1.12,0.77 2.8,1.75 4.21,2.49 0.66,1.38 1.35,2.79 2.05,4.24 -0.46,-0.26 -0.92,-0.55 -1.38,-0.83 -3.14,-1.96 -5.89,-3.37 -6.05,-3.23 -0.24,0.24 3.14,2.61 7.46,5.27 0.26,0.18 0.53,0.34 0.78,0.5 0.39,0.78 0.78,1.58 1.16,2.39 -0.04,-0.02 -0.1,-0.04 -0.14,-0.07 -3.36,-1.41 -6.99,-2.83 -8.09,-3.06 -2.36,-0.64 -2.66,-0.79 10.13,7.3 0.05,0.03 0.11,0.07 0.16,0.1 0.81,1.69 1.64,3.41 2.51,5.17 -3.37,-1.63 -6.08,-2.74 -6.29,-2.61 -0.15,0.24 0.39,0.8 1.26,1.26 0.87,0.47 2.6,1.81 3.77,2.9 1.18,1.11 2.28,1.65 2.43,1.18 0.02,-0.05 0.04,-0.11 0.07,-0.15 0.95,1.98 1.93,4 2.93,6.05 0.2,0.42 0.41,0.83 0.6,1.25 4.19,8.63 8.68,17.95 13.42,27.77 57.26,118.5 52.94,109.21 55.06,118.64 8.91,38.95 30.64,76.22 59.86,102.69 45.71,41.29 105.4,58.78 166.4,48.82 29.96,-4.86 61.98,-18.48 82.89,-35.21 9.14,-7.31 22.67,-20.7 28.9,-28.59 29.21,-36.89 42.67,-82.84 37.65,-128.07 z M 668.9,510.24 c -3.95,-2.43 -10.96,-4.71 -12.02,-3.95 -0.38,0.31 -1.22,1.52 -1.91,2.82 -1.06,2.06 -1.51,2.28 -4.48,2.14 -2.06,-0.08 -4.26,-0.84 -5.63,-1.91 -1.29,-0.92 -3.12,-1.6 -4.03,-1.52 -1.21,0.08 -1.74,-0.31 -1.74,-1.22 0,-1.68 7.08,-5.25 12.17,-6.16 3.71,-0.69 6.46,-0.38 10.94,1.21 3.88,1.3 7.83,4.34 9.59,7.31 2.05,3.43 1.22,3.8 -2.89,1.29 z M 558.48,310.87 c 0.31,-0.79 9.35,-7.78 10.12,-7.86 0.24,0 -1.34,1.58 -3.53,3.53 -4.4,3.93 -6.99,5.66 -6.6,4.33 z m 16.32,-28.58 c 1.03,-1.26 1.65,-1.65 1.65,-1.02 0,0.15 -0.62,0.78 -1.34,1.33 -1.26,1.02 -1.34,0.94 -0.32,-0.31 z m 11.47,-87.72 c 0.78,-0.85 1.57,-1.57 1.73,-1.57 0.15,0 -0.16,0.71 -0.71,1.57 -0.55,0.87 -1.34,1.58 -1.72,1.58 -0.38,0 -0.08,-0.71 0.7,-1.58 z m -11.22,73.97 c 1.14,-0.64 1.01,-0.36 -0.49,1.07 0.16,-0.37 0.33,-0.73 0.49,-1.07 z m -14.34,29.89 c 4.71,-2.27 4.36,-1.92 0.51,0.9 -0.37,0.26 -0.83,0.57 -1.37,0.91 0.28,-0.6 0.58,-1.21 0.85,-1.81 z m -3.11,13.69 c 0,0.37 -2.21,1.81 -5.04,3.32 0.43,-0.89 0.83,-1.73 1.23,-2.57 2.68,-1.41 3.81,-1.6 3.81,-0.74 z m -41.58,-38.25 c 0.08,-0.28 0.23,-0.84 0.5,-1.6 0.03,-0.11 0.08,-0.22 0.12,-0.33 0.3,-0.81 0.71,-1.84 1.28,-3.02 0.55,-1.14 1.21,-2.29 1.96,-3.45 0.18,-0.28 0.36,-0.57 0.56,-0.84 0.07,-0.1 0.13,-0.2 0.21,-0.3 0.25,-0.38 0.53,-0.77 0.81,-1.14 0.27,-0.38 0.56,-0.76 0.87,-1.13 0.33,-0.42 0.66,-0.82 1.01,-1.23 0.27,-0.33 0.55,-0.65 0.83,-0.95 0.32,-0.36 0.64,-0.7 0.96,-1.04 0.33,-0.35 0.66,-0.68 1,-1 0.67,-0.66 1.35,-1.28 2.03,-1.85 0.55,-0.47 1.11,-0.91 1.65,-1.3 0.12,-0.1 0.25,-0.19 0.37,-0.27 0.34,-0.24 0.68,-0.47 1.02,-0.69 0.34,-0.22 0.68,-0.43 1.02,-0.61 0.01,-0.01 0.03,-0.02 0.04,-0.03 0.41,-0.22 0.79,-0.45 1.15,-0.66 0.23,-0.13 0.45,-0.26 0.66,-0.37 0.12,-0.07 0.24,-0.13 0.36,-0.21 0.21,-0.12 0.41,-0.23 0.58,-0.33 0.15,-0.08 0.3,-0.15 0.42,-0.22 0.19,-0.1 0.34,-0.19 0.47,-0.25 0.2,-0.09 0.32,-0.14 0.35,-0.14 0.03,0 -0.01,0.07 -0.12,0.2 -0.07,0.09 -0.16,0.19 -0.28,0.31 -0.05,0.07 -0.12,0.12 -0.2,0.2 l -0.22,0.22 c -0.08,0.08 -0.16,0.15 -0.24,0.24 -0.27,0.25 -0.59,0.55 -0.94,0.89 -0.43,0.41 -0.91,0.85 -1.42,1.35 -0.01,0 -0.03,0.01 -0.04,0.03 -0.13,0.12 -0.26,0.24 -0.41,0.37 -0.58,0.53 -1.12,1.04 -1.61,1.57 -0.53,0.53 -1.01,1.05 -1.45,1.57 v 0 c -1.11,1.3 -1.95,2.59 -2.6,3.93 0,0.01 -0.01,0.02 -0.01,0.03 -0.66,1.34 -1.1,2.74 -1.38,4.28 v 0.02 c 0,0 -0.02,0.11 -0.03,0.15 -0.53,2.43 -0.45,2.43 2.06,-1.22 0.5,-0.73 1.04,-1.41 1.63,-2.04 l 0.02,-0.02 c 5.01,-5.46 12.5,-7.07 16.52,-3.11 1.23,1.25 2.14,2.7 2.71,4.32 v 0 c 0,0 0.01,0.02 0.01,0.03 0.02,0.04 0.04,0.09 0.05,0.13 0.48,1.41 0.72,2.95 0.72,4.6 0,3.02 -0.81,6.42 -2.43,10.09 l -1.49,3.28 v 0.02 l -0.02,0.03 -0.11,0.24 -0.12,0.25 -0.13,0.3 v 0 c 0,0 -0.02,0.05 -0.02,0.05 l 2.82,-2.76 h 0.01 c 0,0 0.08,-0.08 0.08,-0.08 h 0.01 c 0,0 0.5,-0.5 0.5,-0.5 1.38,-1.36 2.37,-2.5 3.41,-4.24 0.03,-0.05 0.05,-0.08 0.08,-0.13 0.01,0 0.01,-0.01 0.01,-0.01 v 0 c 0.89,-1.53 1.82,-3.49 3.07,-6.4 v 0 c 0.02,-0.05 0.03,-0.1 0.05,-0.14 v -0.02 c 0.38,-0.87 0.78,-1.79 1.22,-2.83 0.27,-0.64 0.45,-0.98 0.55,-0.98 0.13,0 0.09,0.77 -0.1,2.5 -1.36,13.02 -7.44,22.44 -17.49,27.38 -2.76,1.37 -5.04,2.23 -7.1,2.63 -0.3,0.05 -0.58,0.1 -0.87,0.13 -1.08,0.14 -2.11,0.13 -3.14,-0.02 -0.27,-0.03 -0.54,-0.09 -0.81,-0.14 -1.36,-0.27 -2.73,-0.81 -4.2,-1.6 -1.87,-1 -4,-1.97 -5.53,-4.03 -1.75,-2.33 -1.85,-4.75 -2.05,-9.49 -0.09,-2.03 -0.19,-4.95 0.8,-8.61 z m -1.29,-40.75 c 0,0 0.03,0.09 0.03,0.21 -0.26,0.39 -0.41,0.68 -0.41,0.84 0,0.08 -0.28,0.71 -0.79,1.82 0.42,-1.91 0.85,-3.19 1.16,-2.87 z m -75.23,15.39 c 0.24,-0.78 0.71,-1.17 0.94,-0.93 0.23,0.23 0,0.85 -0.55,1.41 -0.78,0.7 -0.87,0.62 -0.39,-0.48 z m -85.28,45.4 c -0.39,-0.24 -0.79,-1.41 -0.79,-2.52 0,-2.51 0.39,-2.2 1.11,0.79 0.31,1.49 0.23,2.04 -0.32,1.73 z m 5.49,17.19 c -0.55,0.56 -0.78,-0.08 -0.7,-1.96 0,-2.51 0.09,-2.6 0.79,-0.79 0.47,1.26 0.47,2.2 -0.09,2.75 z m 2.36,-19.56 c -0.46,-0.23 -0.78,-0.78 -0.78,-1.25 0,-1.11 0.55,-0.87 1.1,0.55 0.24,0.62 0.16,0.94 -0.32,0.7 z m 6.26,13.11 c -2.76,-4.75 -5.47,-10.29 -5.47,-11.38 0,-0.55 0.71,0.24 1.58,1.65 0.85,1.41 1.57,2.67 1.57,2.9 0,0.12 0.98,1.77 2.32,3.89 z m -117.05,53.56 c -0.16,0.24 -1.18,-0.32 -2.28,-1.1 -1.1,-0.87 -1.57,-1.58 -1.17,-1.5 0.46,0 1.49,0.48 2.27,1.11 0.87,0.62 1.41,1.33 1.18,1.49 z m 42.09,107.11 c 0,0 -0.05,0.04 -0.09,0.05 -0.28,0.13 -0.83,-0.12 -1.33,-0.6 -0.71,-0.79 -0.62,-0.87 0.47,-0.39 0.18,0.05 0.33,0.11 0.46,0.2 0.47,0.23 0.67,0.56 0.48,0.74 z m 25.46,-32.52 c -1.37,-0.14 -1.6,-0.08 -0.68,0.54 1.48,0.99 -1.27,2.07 -4.77,2.2 h -0.04 c -0.81,0.03 -1.65,0.01 -2.5,-0.08 -1.9,-0.19 -3.82,-0.72 -5.73,-1.53 -0.01,-0.01 -0.03,-0.01 -0.04,-0.02 -6.42,-2.76 -12.53,-8.78 -15.98,-16.08 -1.9,-4.11 -2.36,-6.23 -2.57,-11.63 l -0.31,-6.63 0.99,4.2 c 0.14,0.54 0.27,1.04 0.39,1.52 v 0.02 c 0.74,2.71 1.37,4.46 2.23,6 0.56,1 1.23,1.92 2.09,2.95 0.76,0.92 1.38,1.57 1.84,1.94 1.25,1.02 1.36,0.09 -0.02,-2.63 -0.72,-1.41 -1.19,-2.9 -1.45,-4.42 v 0 -0.03 c -1.1,-6.64 2.05,-13.52 7.37,-14.26 3.75,-0.49 7.6,0.9 11.2,3.93 h 0.01 c 1.88,1.6 3.7,3.65 5.38,6.11 l 0.15,0.22 1.98,2.82 -0.33,-1.56 v 0 c 0,0 -0.21,-1.02 -0.21,-1.02 -0.03,-0.18 -0.07,-0.35 -0.12,-0.54 -0.27,-1.26 -0.72,-2.63 -1.3,-4.03 -0.66,-1.59 -1.48,-3.21 -2.42,-4.75 0,0 0,-0.01 -0.01,-0.01 -1.07,-1.81 -2.31,-3.49 -3.6,-4.9 -4.26,-4.71 -1.21,-3.2 4.49,2.2 0.27,0.26 0.55,0.53 0.81,0.8 3.49,3.46 6.09,7.2 7.78,11.14 1.51,3.54 2.29,7.26 2.29,11.11 0,9.12 -3.28,16.88 -6.92,16.42 z m 15.61,-44.52 c -0.24,1.26 -5.42,-11.07 -5.35,-12.72 0,-0.47 1.26,1.96 2.83,5.34 1.49,3.31 2.67,6.68 2.52,7.38 z m 30.62,-121.09 c -0.24,0.24 -0.7,-0.15 -0.94,-0.94 -0.47,-1.1 -0.39,-1.17 0.39,-0.47 0.55,0.56 0.78,1.18 0.55,1.41 z m 3.28,20.19 c -1.41,-2.37 -2.33,-4.09 -2.33,-4.48 0,-0.83 0.55,-0.32 2.33,2.38 z m 0.02,-12.37 c -1.6,-2.65 -3.17,-6.06 -2.83,-6.41 0.16,-0.15 1.1,1.03 2.11,2.67 l 0.72,1.14 c 0,0.84 0,1.71 -0.01,2.6 z m 25.92,-89.49 c 0.38,0.87 0.7,2.11 0.7,2.75 0,0.7 -0.32,0.62 -0.7,-0.39 -0.39,-0.87 -0.71,-2.13 -0.71,-2.75 0,-0.71 0.32,-0.64 0.71,0.39 z m 23.95,88.18 c -7.63,14.72 -16.87,17.66 -25.9,8.26 q 0,0 -0.02,-0.02 h -0.01 c -0.33,-0.35 -0.66,-0.71 -0.99,-1.1 -3.08,-3.48 -5.21,-8.21 -6.21,-13.28 -0.01,-0.01 -0.01,-0.02 -0.01,-0.03 -0.93,-4.67 -0.88,-9.62 0.28,-14.14 1.07,-4.26 4.57,-12.39 5.32,-12.39 0.15,0 -0.38,2.05 -1.14,4.63 -0.58,1.86 -0.98,3.62 -1.17,5.26 v 0 c -0.22,1.72 -0.24,3.29 -0.04,4.71 v 0 c 0.15,1.22 0.46,2.3 0.91,3.26 l 0.31,0.71 v 0 c 0,0 0.69,1.58 0.69,1.58 l 0.07,-2.29 c 0.03,-0.7 0.1,-1.41 0.21,-2.11 0.51,-3.52 1.99,-6.9 4,-9.37 1.04,-1.27 2.22,-2.3 3.48,-2.97 4.42,-2.29 8.81,-0.78 12,3.45 h 0.01 c 0,0 0.01,0.02 0.02,0.03 0,0 0.01,0 0.02,0.01 1.91,2.54 3.4,6.06 4.22,10.34 l 0.13,0.66 v 0.04 c 0,0 0.01,0.02 0.01,0.02 l 0.59,3.02 v 0.09 c 0,0 0.01,0.02 0.01,0.02 l 0.25,1.31 0.83,-3.03 c 0.05,-0.2 0.12,-0.39 0.16,-0.6 v 0 c 0.39,-1.52 0.61,-3.22 0.67,-5 v -0.02 c 0.11,-2.99 -0.24,-6.23 -1.06,-9.21 -0.92,-3.65 -0.92,-4.03 0,-2.74 0.03,0.04 0.05,0.07 0.08,0.11 h 0.01 c 2.21,3.03 3.53,6.81 4.11,11.89 0.23,1.92 0.35,4.02 0.37,6.34 0,7.75 -0.16,8.67 -2.21,12.54 z"
         id="path114"
         style="fill:url(#linearGradient698);stroke-width:1.98823" />
      <path
         class="cls-10"
         d="m 668.89,510.24 c -3.95,-2.43 -10.96,-4.71 -12.02,-3.95 -0.38,0.31 -1.22,1.52 -1.91,2.82 -1.06,2.06 -1.51,2.28 -4.48,2.14 -2.06,-0.08 -4.26,-0.84 -5.63,-1.91 -1.29,-0.92 -3.12,-1.6 -4.03,-1.52 -1.21,0.08 -1.74,-0.31 -1.74,-1.22 0,-1.68 7.08,-5.25 12.17,-6.16 3.71,-0.69 6.46,-0.38 10.94,1.21 3.88,1.3 7.83,4.34 9.59,7.31 2.05,3.43 1.22,3.8 -2.89,1.29 z"
         id="path116"
         style="fill:url(#linearGradient700);stroke-width:1.98823" />
      <path
         d="m 668.89,510.24 c -3.95,-2.43 -10.96,-4.71 -12.02,-3.95 -0.38,0.31 -1.22,1.52 -1.91,2.82 -1.06,2.06 -1.51,2.28 -4.48,2.14 -2.06,-0.08 -4.26,-0.84 -5.63,-1.91 -1.29,-0.92 -3.12,-1.6 -4.03,-1.52 -1.21,0.08 -1.74,-0.31 -1.74,-1.22 0,-1.68 7.08,-5.25 12.17,-6.16 3.71,-0.69 6.46,-0.38 10.94,1.21 3.88,1.3 7.83,4.34 9.59,7.31 2.05,3.43 1.22,3.8 -2.89,1.29 z"
         id="path118"
         style="stroke-width:1.98823" />
      <path
         class="cls-5"
         d="m 292.88,464.58 c 0.12,0.26 0.25,0.53 0.39,0.8 0.04,0 0.06,-0.03 0.09,-0.05 0.18,-0.18 0,-0.51 -0.47,-0.75 z"
         id="path120"
         style="fill:url(#linearGradient702);stroke-width:1.98823" />
    </g>
    <g
       id="g864"
       transform="matrix(0.85126064,0,0,0.85126064,53.8507,203.35356)"
       style="stroke-width:0.68177">
      <path
         class="cls-1"
         d="m 465.76568,870.97546 4.03,-41.71 h 14.15 l 3.96,41.71 h -7.89 l -0.59,-6.73 h -5.02 l -0.52,6.73 h -8.1 z m 9.22,-13.39 h 3.79 l -1.82,-21.21 h -0.38 z"
         id="path144"
         style="stroke-width:0.68177" />
      <path
         class="cls-1"
         d="m 490.45568,870.97546 v -41.71 h 8.58 l 3.84,19.98 v -19.98 h 8.06 v 41.71 h -8.15 l -4.17,-20.85 v 20.85 h -8.15 z"
         id="path146"
         style="stroke-width:0.68177" />
      <path
         class="cls-1"
         d="m 514.62568,870.97546 v -41.71 h 11.47 c 3,0 5.26,0.83 6.78,2.5 1.52,1.67 2.27,4.1 2.27,7.31 v 19.53 c 0,3.95 -0.69,7 -2.07,9.15 -1.38,2.15 -3.8,3.22 -7.26,3.22 h -11.18 z m 8.39,-7.37 h 1.45 c 1.53,0 2.3,-0.74 2.3,-2.23 v -21.52 c 0,-1.39 -0.19,-2.29 -0.56,-2.69 -0.37,-0.4 -1.13,-0.6 -2.26,-0.6 h -0.92 v 27.04 z"
         id="path148"
         style="stroke-width:0.68177" />
      <path
         class="cls-1"
         d="m 549.93568,870.97546 v -41.71 h 8.29 v 14.91 h 3.93 v -14.91 h 8.29 v 41.71 h -8.29 v -18.91 h -3.93 v 18.91 z"
         id="path150"
         style="stroke-width:0.68177" />
      <path
         class="cls-1"
         d="m 584.10568,871.35546 c -3.33,0 -5.88,-1.01 -7.64,-3.02 -1.76,-2.01 -2.64,-4.92 -2.64,-8.73 v -19.81 c 0,-3.57 0.87,-6.28 2.62,-8.13 1.75,-1.85 4.3,-2.77 7.67,-2.77 3.37,0 5.92,0.92 7.67,2.77 1.75,1.85 2.62,4.56 2.62,8.13 v 19.81 c 0,3.81 -0.88,6.72 -2.64,8.73 -1.76,2.01 -4.31,3.02 -7.64,3.02 z m 0.07,-7.68 c 1.26,0 1.9,-1.22 1.9,-3.67 v -20.36 c 0,-2.05 -0.62,-3.08 -1.85,-3.08 -1.39,0 -2.09,1.05 -2.09,3.15 v 20.33 c 0,1.3 0.16,2.22 0.47,2.78 0.31,0.56 0.84,0.84 1.56,0.84 z"
         id="path152"
         style="stroke-width:0.68177" />
      <path
         class="cls-1"
         d="m 607.65568,871.35546 c -3.81,0 -6.55,-0.95 -8.23,-2.84 -1.68,-1.9 -2.52,-4.91 -2.52,-9.05 v -4.08 h 8.25 v 5.21 c 0,0.96 0.15,1.72 0.44,2.26 0.29,0.55 0.8,0.82 1.53,0.82 0.73,0 1.28,-0.22 1.58,-0.66 0.29,-0.44 0.44,-1.17 0.44,-2.18 0,-1.28 -0.13,-2.35 -0.38,-3.21 -0.25,-0.86 -0.69,-1.68 -1.31,-2.46 -0.62,-0.78 -1.49,-1.69 -2.59,-2.74 l -3.74,-3.56 c -2.8,-2.64 -4.19,-5.65 -4.19,-9.05 0,-3.4 0.83,-6.26 2.48,-8.13 1.65,-1.86 4.04,-2.8 7.17,-2.8 3.82,0 6.54,1.02 8.14,3.06 1.6,2.04 2.41,5.13 2.41,9.29 h -8.48 v -2.87 c 0,-0.57 -0.16,-1.01 -0.49,-1.33 -0.32,-0.32 -0.76,-0.47 -1.31,-0.47 -0.66,0 -1.15,0.19 -1.46,0.56 -0.31,0.37 -0.46,0.85 -0.46,1.43 0,0.58 0.16,1.22 0.47,1.9 0.32,0.68 0.94,1.46 1.87,2.35 l 4.81,4.62 c 0.96,0.92 1.85,1.88 2.65,2.9 0.8,1.02 1.45,2.2 1.94,3.55 0.49,1.35 0.73,3 0.73,4.94 0,3.92 -0.72,6.99 -2.17,9.21 -1.45,2.22 -3.96,3.33 -7.55,3.33 z"
         id="path154"
         style="stroke-width:0.68177" />
      <path
         class="cls-1"
         d="m 620.14568,870.97546 v -41.71 h 11.02 c 2.31,0 4.14,0.51 5.49,1.54 1.35,1.03 2.32,2.49 2.9,4.38 0.58,1.9 0.88,4.16 0.88,6.78 0,2.62 -0.25,4.73 -0.73,6.6 -0.49,1.87 -1.36,3.32 -2.62,4.35 -1.26,1.03 -3.04,1.54 -5.34,1.54 h -3.39 v 16.52 h -8.2 z m 8.2,-24 h 0.47 c 1.55,0 2.5,-0.43 2.84,-1.3 0.35,-0.87 0.52,-2.15 0.52,-3.84 0,-1.58 -0.17,-2.8 -0.51,-3.66 -0.34,-0.86 -1.14,-1.29 -2.41,-1.29 h -0.92 v 10.09 z"
         id="path156"
         style="stroke-width:0.68177" />
      <path
         class="cls-1"
         d="m 642.67568,870.97546 v -41.71 h 8.06 v 41.71 z"
         id="path158"
         style="stroke-width:0.68177" />
      <path
         class="cls-1"
         d="m 657.63568,870.97546 v -33.7 h -4.95 v -8.01 h 18.25 v 8.01 h -4.95 v 33.7 h -8.34 z"
         id="path160"
         style="stroke-width:0.68177" />
      <path
         class="cls-1"
         d="m 671.49568,870.97546 4.03,-41.71 h 14.15 l 3.96,41.71 h -7.89 l -0.59,-6.73 h -5.02 l -0.52,6.73 h -8.1 z m 9.22,-13.39 h 3.79 l -1.82,-21.21 h -0.38 z"
         id="path162"
         style="stroke-width:0.68177" />
      <path
         class="cls-1"
         d="m 696.18568,870.97546 v -41.71 h 8.34 v 34.6 h 8.58 v 7.11 z"
         id="path164"
         style="stroke-width:0.68177" />
      <path
         class="cls-1"
         d="m 715.09568,870.97546 v -41.71 h 8.06 v 41.71 z"
         id="path166"
         style="stroke-width:0.68177" />
      <path
         class="cls-1"
         d="m 730.04568,870.97546 v -33.7 h -4.95 v -8.01 h 18.25 v 8.01 h -4.95 v 33.7 h -8.34 z"
         id="path168"
         style="stroke-width:0.68177" />
      <path
         class="cls-1"
         d="m 750.71568,870.97546 v -13.72 l -6.66,-27.99 h 8.27 l 2.32,14.12 2.32,-14.12 h 8.25 l -6.64,27.99 v 13.72 h -7.87 z"
         id="path170"
         style="stroke-width:0.68177" />
    </g>
    <path
       class="cls-1"
       d="m 506.51869,902.09729 4.03,-41.71 h 14.15 l 3.96,41.71 h -7.89 l -0.59,-6.73 h -5.02 l -0.52,6.73 h -8.1 z m 9.22,-13.39 h 3.79 l -1.82,-21.21 h -0.38 z"
       id="path124"
       style="stroke-width:0.580364" />
    <path
       class="cls-1"
       d="m 530.11869,902.09729 v -7.58 l 9.55,-26.45 h -8.63 v -7.68 h 17.42 v 7.3 l -9.72,26.73 h 9.31 v 7.68 h -17.94 z"
       id="path126"
       style="stroke-width:0.580364" />
    <path
       class="cls-1"
       d="m 550.73869,902.09729 v -41.71 h 8.06 v 41.71 z"
       id="path128"
       style="stroke-width:0.580364" />
    <path
       class="cls-1"
       d="m 583.19869,902.47729 c -3.02,0 -5.45,-0.94 -7.29,-2.82 -1.84,-1.88 -2.76,-4.51 -2.76,-7.89 v -19.24 c 0,-4.04 0.8,-7.14 2.41,-9.29 1.6,-2.15 4.21,-3.22 7.83,-3.22 1.97,0 3.73,0.36 5.27,1.09 1.54,0.73 2.75,1.81 3.64,3.26 0.88,1.45 1.33,3.27 1.33,5.46 v 7.2 h -8.29 v -6.16 c 0,-1.25 -0.16,-2.09 -0.47,-2.52 -0.32,-0.43 -0.81,-0.65 -1.47,-0.65 -0.77,0 -1.3,0.28 -1.56,0.84 -0.27,0.56 -0.4,1.31 -0.4,2.24 v 20.88 c 0,1.15 0.17,1.97 0.51,2.44 0.34,0.47 0.83,0.71 1.46,0.71 0.71,0 1.21,-0.29 1.5,-0.88 0.29,-0.58 0.44,-1.34 0.44,-2.27 v -7.51 h 8.39 v 7.89 c 0,3.67 -0.92,6.32 -2.77,7.97 -1.85,1.65 -4.43,2.48 -7.75,2.48 z"
       id="path130"
       style="stroke-width:0.580364" />
    <path
       class="cls-1"
       d="m 606.13869,902.47729 c -3.48,0 -6.03,-0.98 -7.68,-2.93 -1.64,-1.95 -2.46,-4.82 -2.46,-8.61 v -30.55 h 8.1 v 30.21 c 0,0.7 0.04,1.36 0.12,2 0.08,0.64 0.26,1.17 0.55,1.58 0.28,0.41 0.74,0.62 1.37,0.62 0.63,0 1.11,-0.2 1.4,-0.6 0.28,-0.4 0.46,-0.93 0.53,-1.58 0.07,-0.65 0.11,-1.32 0.11,-2.01 v -30.21 h 8.1 v 30.55 c 0,3.79 -0.82,6.66 -2.46,8.61 -1.64,1.95 -4.2,2.93 -7.68,2.93 z"
       id="path132"
       style="stroke-width:0.580364" />
    <path
       class="cls-1"
       d="m 619.09869,902.09729 v -41.71 h 8.06 v 41.71 z"
       id="path134"
       style="stroke-width:0.580364" />
    <path
       class="cls-1"
       d="m 640.37869,902.47729 c -3.81,0 -6.55,-0.95 -8.23,-2.84 -1.68,-1.9 -2.52,-4.91 -2.52,-9.05 v -4.08 h 8.25 v 5.21 c 0,0.96 0.15,1.72 0.44,2.26 0.29,0.55 0.8,0.82 1.53,0.82 0.73,0 1.28,-0.22 1.58,-0.66 0.29,-0.44 0.44,-1.17 0.44,-2.18 0,-1.28 -0.13,-2.35 -0.38,-3.21 -0.25,-0.86 -0.69,-1.68 -1.31,-2.46 -0.62,-0.78 -1.49,-1.69 -2.59,-2.74 l -3.74,-3.56 c -2.8,-2.64 -4.19,-5.65 -4.19,-9.05 0,-3.4 0.83,-6.26 2.48,-8.13 1.65,-1.86 4.04,-2.8 7.17,-2.8 3.82,0 6.54,1.02 8.14,3.06 1.6,2.04 2.41,5.13 2.41,9.29 h -8.48 v -2.87 c 0,-0.57 -0.16,-1.01 -0.49,-1.33 -0.32,-0.32 -0.76,-0.47 -1.31,-0.47 -0.66,0 -1.15,0.19 -1.46,0.56 -0.31,0.37 -0.46,0.85 -0.46,1.43 0,0.58 0.16,1.22 0.47,1.9 0.32,0.68 0.94,1.46 1.87,2.35 l 4.81,4.62 c 0.96,0.92 1.85,1.88 2.65,2.9 0.81,1.02 1.45,2.2 1.94,3.55 0.49,1.35 0.73,3 0.73,4.94 0,3.92 -0.72,6.99 -2.17,9.21 -1.45,2.22 -3.96,3.33 -7.55,3.33 z"
       id="path136"
       style="stroke-width:0.580364" />
    <path
       class="cls-1"
       d="m 652.48869,902.09729 v -41.71 h 8.06 v 41.71 z"
       id="path138"
       style="stroke-width:0.580364" />
    <path
       class="cls-1"
       d="m 663.85869,902.09729 v -41.71 h 8.58 l 3.84,19.98 v -19.98 h 8.06 v 41.71 h -8.15 l -4.17,-20.85 v 20.85 h -8.15 z"
       id="path140"
       style="stroke-width:0.580364" />
    <path
       class="cls-1"
       d="m 688.02869,902.09729 v -41.71 h 16.68 v 8.06 h -8.2 v 8.13 h 7.87 v 7.84 h -7.87 v 9.55 h 8.74 v 8.13 h -17.23 z"
       id="path142"
       style="stroke-width:0.580364" />
    <path
       class="cls-11"
       d="m 487.44869,902.59729 c -0.77,-1.22 -1.27,-2.43 -1.88,-3.59 -1.42,-2.73 -2.83,-5.47 -4.22,-8.21 -1.07,-2.11 -2.11,-4.24 -3.18,-6.35 -1.05,-2.07 -2.12,-4.13 -3.17,-6.2 -1,-1.96 -1.98,-3.92 -2.98,-5.87 -1.21,-2.37 -2.48,-4.7 -3.63,-7.1 -1.04,-2.18 -2.24,-4.29 -3.29,-6.47 -0.65,-1.37 -1.42,-2.68 -2.09,-4.03 -0.35,-0.7 -0.83,-1.43 -0.84,-2.16 -0.02,-1.6 -1.09,-2.82 -1.33,-4.31 -0.03,-0.2 -0.13,-0.39 0.04,-0.57 0.12,-0.13 0.28,-0.12 0.44,-0.09 0.26,0.05 0.33,0.25 0.29,0.46 -0.08,0.53 0.26,0.9 0.63,0.94 0.49,0.06 0.82,-0.45 0.97,-0.85 0.2,-0.53 -0.35,-0.83 -0.69,-0.91 -0.51,-0.11 -0.52,-0.36 -0.5,-0.74 0.03,-0.59 -0.15,-1.11 -0.57,-1.53 -0.13,-0.13 -0.21,-0.27 -0.27,-0.45 -0.09,-0.25 -0.2,-0.53 0.08,-0.65 0.33,-0.14 0.24,0.3 0.37,0.39 0.32,0.23 0.35,0.68 0.76,0.84 0.43,0.17 0.35,0.73 0.71,1.16 0.12,-0.62 0.3,-1.08 -0.11,-1.58 -0.17,-0.21 -0.26,-0.54 -0.27,-0.82 -0.01,-0.47 0.39,-0.19 0.6,-0.26 0.18,-0.06 0.43,0.2 0.56,-0.01 0.13,-0.2 -0.05,-0.4 -0.16,-0.61 -0.2,-0.37 -0.34,-0.78 -0.56,-1.29 0.8,0.36 0.82,1.09 1.21,1.56 0.1,0.13 0.18,0.39 0.37,0.32 0.2,-0.07 0.35,-0.27 0.39,-0.51 0.04,-0.2 0.1,-0.42 -0.14,-0.53 -0.61,-0.28 -0.31,-0.81 -0.21,-1.15 0.1,-0.32 0.46,-0.15 0.72,0.06 0.51,0.41 0.61,1.08 1.02,1.56 0.14,0.16 0.17,0.38 0.46,0.39 0.2,0 0.23,0.21 0.17,0.36 -0.32,0.76 0.28,1.14 0.67,1.59 0.18,0.21 0.41,0.26 0.66,0.1 0.21,-0.14 0.47,-0.17 0.64,-0.02 0.23,0.2 0.72,0.36 0.54,0.74 -0.17,0.35 -0.55,0.06 -0.83,-0.01 -0.18,-0.04 -0.37,-0.3 -0.54,-0.09 -0.2,0.26 0.16,0.39 0.27,0.53 0.19,0.25 0.42,0.51 0.8,0.57 0.86,0.15 1.42,1.01 1.28,1.88 -0.07,0.42 0.22,0.66 0.56,0.72 0.41,0.07 0.45,0.29 0.39,0.61 -0.11,0.54 -0.02,0.97 0.44,1.35 0.43,0.37 0.42,1 0.74,1.48 0.85,1.31 1.41,2.78 2.23,4.11 0.38,0.62 0.6,1.33 1.12,1.87 0.22,0.23 0.06,0.52 0.07,0.78 0,0.26 0.04,0.5 0.32,0.61 0.13,0.05 0.23,0 0.27,-0.11 0.11,-0.25 0.09,-0.47 -0.16,-0.65 -0.16,-0.11 -0.35,-0.24 -0.21,-0.49 0.03,-0.06 0.09,-0.14 0.13,-0.14 0.23,0.02 0.34,0.19 0.45,0.37 1.42,2.32 2.6,4.76 3.82,7.18 0.93,1.83 1.9,3.63 2.77,5.49 0.89,1.9 1.92,3.73 2.87,5.6 0.83,1.63 1.63,3.28 2.47,4.9 0.61,1.2 1.27,2.37 1.88,3.57 0.64,1.24 1.28,2.47 1.86,3.74 0.25,0.55 -0.16,1.07 -0.43,1.5 -0.54,0.89 -0.83,1.87 -1.23,2.81 -0.36,0.85 -0.77,1.68 -1.18,2.51 -0.49,0.98 -0.87,2.02 -1.3,3.03 -0.35,0.84 -0.7,1.67 -1.1,2.63 z m -21.58,-58.36 c -0.59,0.27 -0.43,0.67 -0.24,1.03 0.07,0.12 0.23,0.33 0.42,0.27 0.21,-0.06 0.14,-0.3 0.18,-0.46 0.07,-0.36 -0.22,-0.56 -0.36,-0.84 z m 0.87,1.96 c -0.05,-0.19 -0.1,-0.44 -0.38,-0.43 -0.21,0 -0.16,0.23 -0.16,0.37 0,0.24 0.13,0.38 0.36,0.38 0.17,0 0.19,-0.15 0.18,-0.32 z"
       id="path260"
       style="fill:url(#linearGradient694);stroke-width:0.580364" />
    <path
       class="cls-17"
       d="m 464.13869,901.72729 c -0.67,-1.15 -1.1,-2.34 -1.69,-3.45 -0.63,-1.17 -1.13,-2.41 -1.7,-3.61 -0.8,-1.68 -1.62,-3.34 -2.43,-5.02 -0.62,-1.28 -1.23,-2.56 -1.85,-3.84 -0.71,-1.48 -1.42,-2.95 -2.14,-4.43 -0.86,-1.77 -1.73,-3.54 -2.58,-5.31 -0.68,-1.4 -1.34,-2.8 -2.01,-4.2 -0.55,-1.16 -1.08,-2.33 -1.64,-3.49 -0.87,-1.82 -1.74,-3.64 -2.62,-5.46 -0.33,-0.68 -0.66,-1.36 -1.02,-2.02 -0.18,-0.33 -0.19,-0.47 0.25,-0.47 3.74,0 7.48,0.01 11.23,0 0.37,0 0.53,0.21 0.65,0.47 0.87,1.84 1.74,3.67 2.65,5.49 0.99,1.98 1.81,4.03 2.83,6 0.89,1.71 1.65,3.48 2.54,5.19 0.73,1.41 1.35,2.88 2.04,4.32 0.81,1.69 1.64,3.38 2.47,5.06 0.32,0.65 0.67,1.3 1,1.95 0.43,0.86 -0.2,1.5 -0.53,2.16 -1.18,2.39 -2.41,4.75 -3.63,7.12 -0.59,1.16 -1.19,2.32 -1.81,3.53 z"
       id="path262"
       style="fill:url(#linear-gradient-8);stroke-width:0.580364" />
    <path
       class="cls-13"
       d="m 499.82869,871.87729 c -0.52,-1.89 -0.98,-3.66 -1.95,-5.28 -1,-1.67 -2.24,-3.12 -3.81,-4.27 -0.73,-0.54 -1.47,-1.07 -2.33,-1.39 -0.14,-0.05 -0.34,-0.14 -0.31,-0.31 0.03,-0.24 0.27,-0.18 0.44,-0.18 1.15,0 2.3,0 3.45,0 3.58,0 7.16,0 10.75,0 0.24,0 0.48,0 0.86,0 -2.4,3.88 -4.75,7.65 -7.09,11.43 z"
       id="path264"
       style="fill:url(#linear-gradient-9);stroke-width:0.580364" />
  </g>
</svg>
